<svg width="120" height="120" viewBox="0 0 120 120" fill="none" xmlns="http://www.w3.org/2000/svg">
<circle cx="60" cy="60" r="59" stroke="#D20000" stroke-opacity="0.3" stroke-width="2"/>
<path d="M83.5504 51.7377L80.812 39.1928C80.1275 35.8843 77.1149 33.541 73.6916 33.541H46.0331C42.6097 33.541 39.5976 35.8843 38.9127 39.1928L36.1743 51.7377C30.5604 51.7377 27 56.0112 27 60.6979V70.6232C27 72.553 28.2323 74.2072 30.0126 74.7587V81.6512C30.0126 83.4434 31.5186 84.9596 33.2988 84.9596H37.5437C39.3239 84.9596 40.83 83.4434 40.83 81.6512V75.0343H79.17V81.6512C79.17 83.4434 80.6761 84.9596 82.4563 84.9596H86.7012C88.4814 84.9596 89.9874 83.4434 89.9874 81.6512V74.7587C91.7677 74.2072 93 72.553 93 70.6232V60.6979C92.7254 56.0112 89.1654 51.7377 83.5511 51.7377H83.5504ZM41.6506 39.7446C42.0614 37.6768 43.9782 36.2981 46.0321 36.2981H73.6918C75.8828 36.2981 77.6626 37.8143 78.0734 39.7446L80.6751 51.7377H39.05L41.6506 39.7446ZM37.9536 81.6519C37.9536 81.9274 37.6799 82.2034 37.4057 82.2034L33.2983 82.203C33.0246 82.203 32.7505 81.9274 32.7505 81.6514V75.0345L37.9536 75.035V81.6519ZM86.4258 82.0654H82.1809C81.9072 82.0654 81.6331 81.7899 81.6331 81.5139V74.897H86.8362V81.5139C86.9737 81.7894 86.7 82.0654 86.4258 82.0654ZM89.9863 70.6234C89.9863 71.4505 89.3018 72.2777 88.3431 72.2777H31.3806C30.559 72.2777 29.7375 71.5886 29.7375 70.6234V60.6981C29.7375 57.2517 32.4758 54.4948 35.8992 54.4948H83.8234C87.2467 54.4948 89.9851 57.2517 89.9851 60.6981L89.9863 70.6234Z" fill="#D20000"/>
<path d="M82.6396 57.332C79.4878 57.332 76.8838 59.936 76.8838 63.0878C76.8838 66.2397 79.4878 68.8437 82.6396 68.8437C85.7914 68.8437 88.3954 66.2397 88.3954 63.0878C88.3954 59.936 85.7914 57.332 82.6396 57.332ZM82.6396 66.103C80.9951 66.103 79.6245 64.7324 79.6245 63.0878C79.6245 61.4433 80.9951 60.0727 82.6396 60.0727C84.2841 60.0727 85.6547 61.4433 85.6547 63.0878C85.6547 64.7324 84.2841 66.103 82.6396 66.103Z" fill="#D20000"/>
<path d="M36.5937 57.332C33.4419 57.332 30.8379 59.936 30.8379 63.0878C30.8379 66.2397 33.4419 68.8437 36.5937 68.8437C39.7455 68.8437 42.3495 66.2397 42.3495 63.0878C42.3495 59.936 39.7455 57.332 36.5937 57.332ZM36.5937 66.103C34.9492 66.103 33.5786 64.7324 33.5786 63.0878C33.5786 61.4433 34.9492 60.0727 36.5937 60.0727C38.2382 60.0727 39.6088 61.4433 39.6088 63.0878C39.6084 64.7324 38.2382 66.103 36.5937 66.103Z" fill="#D20000"/>
<path d="M69.9991 64.2383H49.097C48.2719 64.2383 47.7217 64.8523 47.7217 65.7732C47.7217 66.694 48.2719 67.308 49.097 67.308H70.1371C70.9622 67.308 71.5124 66.694 71.5124 65.7732C71.5124 64.8523 70.8245 64.2383 69.9994 64.2383H69.9991Z" fill="#D20000"/>
<path d="M69.9982 58.8672H49.096C48.2709 58.8672 47.7207 59.4812 47.7207 60.4021C47.7207 61.3229 48.2709 61.937 49.096 61.937H70.1361C70.9612 61.937 71.5114 61.3229 71.5114 60.4021C71.5114 59.4812 70.8235 58.8672 69.9984 58.8672H69.9982Z" fill="#D20000"/>
<path d="M61.79 40.4473H57.4412C56.6739 40.4473 56.1621 41.0613 56.1621 41.9821C56.1621 42.903 56.6739 43.517 57.4412 43.517H61.79C62.5573 43.517 63.0691 42.903 63.0691 41.9821C63.0691 41.0613 62.4297 40.4473 61.79 40.4473Z" fill="#D20000"/>
</svg>
