<svg id="OBJECTS" xmlns="http://www.w3.org/2000/svg" viewBox="0 0 653.09 400.53"><defs><style>.cls-1{fill:#f4ebe4;}.cls-1,.cls-10,.cls-11,.cls-12,.cls-13,.cls-14,.cls-15,.cls-16,.cls-17,.cls-18,.cls-19,.cls-2,.cls-20,.cls-21,.cls-22,.cls-23,.cls-24,.cls-25,.cls-29,.cls-30,.cls-31,.cls-35,.cls-36,.cls-38,.cls-39,.cls-41,.cls-42,.cls-43,.cls-44,.cls-45,.cls-6,.cls-7,.cls-8,.cls-9{fill-rule:evenodd;}.cls-2,.cls-4{fill:#e5c9be;}.cls-3{fill:#eab3a2;}.cls-5{fill:#e6e4eb;}.cls-10,.cls-6{fill:#0f1630;}.cls-6{stroke:#0e1632;stroke-miterlimit:22.93;stroke-width:0.22px;}.cls-7{fill:#cec9d0;}.cls-27,.cls-8{fill:#fff;}.cls-9{fill:#e8685b;}.cls-11{fill:#3d4155;}.cls-12{fill:#545a6c;}.cls-13{fill:#f4ad85;}.cls-14{fill:#ed9072;}.cls-15,.cls-34{fill:#0e1632;}.cls-16{fill:#010518;}.cls-17{fill:#af5315;}.cls-18{fill:#c66c0a;}.cls-19{fill:#05304b;}.cls-20{fill:#171c3a;}.cls-21{fill:#c9c4d1;}.cls-22{fill:#1c2344;}.cls-23{fill:#101937;}.cls-24,.cls-33{fill:#383d5d;}.cls-25{fill:#01020e;}.cls-26,.cls-31{fill:#e2e1e7;}.cls-28,.cls-36,.cls-37{fill:#a32424;}.cls-29{fill:#c42d2d;}.cls-30,.cls-32{fill:#acabbb;}.cls-35{fill:#f9e6e1;}.cls-37{font-size:24.53px;font-family:OpenSans-Extrabold, Open Sans;font-weight:800;}.cls-38{fill:#004a82;}.cls-39{fill:#b92f6d;}.cls-40{fill:#a8a6b5;}.cls-41{fill:#96929f;}.cls-42{fill:#f0eef0;}.cls-43{fill:#d2ced6;}.cls-44{fill:#484e6a;}.cls-45{fill:#1a293d;}</style></defs><path class="cls-1" d="M193.18,313.11H139.05a53.12,53.12,0,0,0-53,53h0a53.12,53.12,0,0,0,53,53h457.7a86,86,0,0,0,85.77-85.77h0a86,86,0,0,0-85.77-85.77h0a36.37,36.37,0,0,1-36.27-36.26h0A36.37,36.37,0,0,1,596.75,175h43.64a37.82,37.82,0,0,0,37.71-37.7h0a37.82,37.82,0,0,0-37.71-37.71H585.2a14.72,14.72,0,0,1-14.68-14.68h0A14.72,14.72,0,0,1,585.2,70.21h9.73a10.16,10.16,0,0,0,10.13-10.13h0a10.16,10.16,0,0,0-10.13-10.13H531.09c-13.45,0-14.94,15.89-48.91,15.89H384.33a13.26,13.26,0,0,0-13.22,13.22h0a13.26,13.26,0,0,0,13.22,13.22H397a19.21,19.21,0,0,1,19.16,19.15h0A19.21,19.21,0,0,1,397,130.57h-19.1c-51.59,0-58.88,13.49-67.91,40.3s-56,29-56,29H189.87A29,29,0,0,0,161,228.72h0a29,29,0,0,0,28.86,28.86h3.31a27.84,27.84,0,0,1,27.76,27.76h0a27.85,27.85,0,0,1-27.76,27.77ZM623.36,70.21a10.14,10.14,0,1,1,10.13-10.13A10.13,10.13,0,0,1,623.36,70.21Z" transform="translate(-44.44 -49.42)"/><path class="cls-2" d="M201.5,418.51h4.64V390.35l17.58,17.58-10.58,10.58h4.37l8.4-8.39,8.39,8.39h4.37l-10.58-10.58,17.58-17.58v28.16h4.64V199.32h-4.64v5.34l-5.34-5.34H236l9.71,9.71v.27l-19.76,19.77L206.14,209.3V209l9.71-9.71h-4.37l-5.34,5.34v-5.34H201.5v58.11a27.47,27.47,0,0,1,4.64,1.2v-.79l1.27,1.28a27.94,27.94,0,0,1,15.23,15.23l1.08,1.07-.49.49a26.84,26.84,0,0,1,.93,3.44l1.75-1.74,19.76,19.76v.27l-19.76,19.77-11.26-11.26a28.67,28.67,0,0,1-2.51,1.87l11.58,11.57-17.58,17.58V311a27.47,27.47,0,0,1-4.64,1.2V418.51Zm4.64-37.17V346.18l17.58,17.58-17.58,17.58Zm0-132.51V213.67l17.58,17.58-17.58,17.58Zm39.53-35.16v35.16l-17.58-17.58,17.58-17.58Zm0,44.17V293l-17.58-17.58,17.58-17.58Zm0,44.17v35.16l-17.58-17.58L245.67,302Zm0,44.17v35.16l-17.58-17.58,17.58-17.58Zm-39.53-93,19.77-19.76,19.76,19.76v.27l-19.76,19.77-19.77-19.77v-.27Zm0,88.34,19.77-19.76,19.76,19.76v.27l-19.76,19.77-19.77-19.77v-.27Zm0,44.18L225.91,366l19.76,19.77V386l-19.76,19.77L206.14,386Z" transform="translate(-44.44 -49.42)"/><path class="cls-2" d="M525.82,418.51h4.64V390.35L548,407.93l-10.58,10.58h4.37l8.39-8.39,8.4,8.39H563l-10.58-10.58L570,390.35v28.16h4.64V236a36.07,36.07,0,0,1-4.64-5.81v18.6l-17.58-17.58,12.7-12.7c-.27-1.23-.48-2.47-.63-3.74l-14.26,14.26L530.46,209.3V209l19.76-19.76,14.67,14.66a34.55,34.55,0,0,1,.86-3.51l-13.34-13.34L570,169.5v21.69a35.64,35.64,0,0,1,4.64-5.81V87.48a14.62,14.62,0,0,1-.34-3.12h0a14.64,14.64,0,0,1,.34-3.13V49.42H570V72.15L552.41,54.57l5.15-5.15h-4.37l-3,3-3-3h-4.38L548,54.57,530.46,72.15V50.05a20.28,20.28,0,0,0-4.64,2.14V418.51Zm4.64-37.17V346.18L548,363.76l-17.58,17.58Zm0-44.17V302L548,319.59l-17.58,17.58Zm0-44.17V257.84L548,275.42,530.46,293Zm0-44.17V213.67L548,231.25l-17.58,17.58Zm0-44.17V169.5L548,187.08l-17.58,17.58Zm0-44.17V125.33L548,142.91l-17.58,17.58Zm0-44.17V81.16L548,98.74l-17.58,17.58ZM570,81.16v35.16L552.41,98.74,570,81.16Zm0,44.17v35.16l-17.58-17.58L570,125.33Zm0,132.51V293l-17.58-17.58L570,257.84ZM570,302v35.16l-17.58-17.58L570,302Zm0,44.17v35.16l-17.58-17.58L570,346.18ZM530.46,76.52l19.76-19.76L570,76.52v.27L550.22,96.55,530.46,76.79v-.27Zm0,44.17,19.76-19.76L570,120.69V121l-19.77,19.76L530.46,121v-.27Zm0,44.17,19.76-19.76L570,164.86v.27L550.22,184.9l-19.76-19.77v-.27Zm0,88.34,19.76-19.76L570,253.2v.27l-19.77,19.77-19.76-19.77v-.27Zm0,44.17,19.76-19.76L570,297.37v.27l-19.77,19.77-19.76-19.77v-.27Zm0,44.17,19.76-19.76L570,341.54v.27l-19.77,19.77-19.76-19.77v-.27Zm0,44.18L550.22,366,570,385.72V386l-19.77,19.77L530.46,386Z" transform="translate(-44.44 -49.42)"/><path class="cls-2" d="M185.09,312.58h-6.84V321l-8.37-8.38h-6.44l14.81,14.82v.39l-29.12,29.12L120,327.79v-.39l14.09-14.09a52.11,52.11,0,0,0-8.66,2.22L120,321v-3.18a52,52,0,0,0-6.83,3.94v87.66a54.31,54.31,0,0,0,6.83,3.94v-14l19.07,19.07c1.24.09,2.49.13,3.74.13h2.83L120,392.87v-.39l29.13-29.12,29.12,29.12v.39l-25.64,25.64h6.44l19.2-19.2v19.2h6.84V312.58Zm0-112a29.17,29.17,0,0,0-16.26,12.86l9.42-9.42v48.52a28.79,28.79,0,0,0,6.84,3.17V200.62ZM120,386V334.23l25.91,25.9L120,386Zm58.25-51.81V386l-25.9-25.91Z" transform="translate(-44.44 -49.42)"/><path class="cls-2" d="M591,418.51h6.84v-19.2l17.84,17.84q2.67-.48,5.3-1.13l-23.14-23.15v-.39L627,363.36l29.13,29.12v.39l-15.74,15.74A86.65,86.65,0,0,0,663,391.38V274.11a87.32,87.32,0,0,0-9.51-8.73L627,291.83,597.88,262.7v-.39l14.5-14.5q-2.88-.41-5.82-.62l-8.68,8.68v-9a35.82,35.82,0,0,1-6.84-1.17v172.8Zm0-242.8a35.82,35.82,0,0,1,6.84-1.17V139l25.9,25.9-9.56,9.56h6.44L627,168.1l6.34,6.34h6.44l-9.56-9.56L656.13,139v33.5a36.9,36.9,0,0,0,6.83-3.09v-65.3a36.9,36.9,0,0,0-6.83-3.09v24.7L630.22,99.8,631,99h-8l.76.76-25.9,25.9V99H591v76.67Zm0-106h7.66a9.5,9.5,0,0,0,1.31-.09l-2.13-2.14v-.39l10.49-10.5a10,10,0,0,0-2.4-4l-8.09,8.1V49.42H591V69.68ZM597.88,386V334.23l25.9,25.9L597.88,386Zm0-65.08V269.15l25.9,25.9L597.88,321Zm58.25-51.81V321l-25.91-25.91,25.91-25.9Zm0,65.08V386l-25.91-25.91,25.91-25.9ZM597.88,132.14,627,103l29.13,29.12v.4L627,161.66l-29.12-29.12v-.4Zm0,195.26L627,298.27l29.13,29.13v.39L627,356.91l-29.12-29.12Z" transform="translate(-44.44 -49.42)"/><rect class="cls-3" x="123.42" y="285.32" width="53.45" height="39.72" rx="3.43"/><rect class="cls-4" x="153.98" y="285.32" width="53.45" height="39.72" rx="3.43"/><rect class="cls-3" x="161.5" y="298.44" width="38.41" height="13.48" rx="1.96"/><rect class="cls-5" x="165.51" y="300.72" width="17.82" height="2.94" rx="0.43"/><rect class="cls-5" x="165.51" y="305.38" width="9.23" height="2.94" rx="0.43"/><rect class="cls-3" x="153.24" y="325.04" width="64.05" height="47.6" rx="4.11"/><rect class="cls-4" x="116.61" y="325.04" width="64.05" height="47.6" rx="4.11"/><rect class="cls-3" x="125.62" y="340.76" width="46.03" height="16.16" rx="2.35"/><rect class="cls-5" x="145.5" y="343.5" width="21.35" height="3.53" rx="0.51"/><rect class="cls-5" x="155.78" y="349.08" width="11.07" height="3.53" rx="0.51"/><path class="cls-2" d="M457.21,160.85a15.05,15.05,0,0,1,24.56,4.9,15.1,15.1,0,0,1,0,11.51,15.21,15.21,0,0,1-3.27,4.89,15.07,15.07,0,0,1-21.29,0,15.38,15.38,0,0,1-3.27-4.89,15.1,15.1,0,0,1,0-11.51,15.31,15.31,0,0,1,3.27-4.9Zm5.42-2a13.67,13.67,0,0,0,10.45,25.26,13.69,13.69,0,0,0,7.4-7.4,13.66,13.66,0,0,0-3-14.89,13.71,13.71,0,0,0-14.89-3ZM461,147.79a27,27,0,0,0-2.78,1,24.44,24.44,0,0,0-2.66,1.33,24.85,24.85,0,0,0-2.51,1.67,25.44,25.44,0,0,0-2.3,1.95,1.52,1.52,0,0,1-.9.43,1.48,1.48,0,0,1-1-.2c-2.21-1.27-4.54-2.54-6.7-3.87a1.39,1.39,0,0,0-.33-.1,1.16,1.16,0,0,0-.37,0,1,1,0,0,0-.34.17.9.9,0,0,0-.24.27c-1.61,2.44-3.23,5.59-4.72,8.18a1.12,1.12,0,0,0-.12.35,1,1,0,0,0,0,.38,1.06,1.06,0,0,0,.16.34,1.08,1.08,0,0,0,.28.24c2,1.32,4.55,2.63,6.66,3.85a1.59,1.59,0,0,1,.67.74c0,.11.07.22.1.33l.13,0-.15.62c-.12.49-.23,1-.32,1.46s-.16,1-.22,1.49-.11,1-.14,1.5,0,1,0,1.51,0,1,0,1.51.08,1,.14,1.5.14,1,.22,1.49.2,1,.32,1.46a1.58,1.58,0,0,1-.81,1.78l-5.9,3.41h0l-.7.4a1.08,1.08,0,0,0-.28.24,1.06,1.06,0,0,0-.16.34,1,1,0,0,0,0,.38,1.12,1.12,0,0,0,.12.35l4.36,7.57h0l.35.61a.9.9,0,0,0,.24.27,1,1,0,0,0,.34.17,1.25,1.25,0,0,0,.38,0,1.12,1.12,0,0,0,.35-.12c2.11-1.33,4.49-2.59,6.67-3.85a1.59,1.59,0,0,1,1.88.22h0a23.92,23.92,0,0,0,2.3,1.95,24.85,24.85,0,0,0,2.51,1.67,26.79,26.79,0,0,0,2.68,1.34,26.13,26.13,0,0,0,2.82,1,1.53,1.53,0,0,1,.83.56,1.6,1.6,0,0,1,.32,1v7.7a1,1,0,0,0,.07.36,1,1,0,0,0,.21.31,1.06,1.06,0,0,0,.31.21.86.86,0,0,0,.36.07h9.45a.86.86,0,0,0,.36-.07,1,1,0,0,0,.52-.52.86.86,0,0,0,.07-.36v-7.7a1.54,1.54,0,0,1,.35-1,1.51,1.51,0,0,1,.87-.56,24.66,24.66,0,0,0,2.77-1,25.53,25.53,0,0,0,2.67-1.33,26,26,0,0,0,2.51-1.67,25.07,25.07,0,0,0,2.29-1.95,1.55,1.55,0,0,1,.95-.44,1.59,1.59,0,0,1,1,.26l6.59,3.8a1.12,1.12,0,0,0,.35.12,1.25,1.25,0,0,0,.38,0,.91.91,0,0,0,.34-.17.9.9,0,0,0,.24-.27c1.57-2.73,3.16-5.45,4.72-8.18a.77.77,0,0,0,.12-.35.83.83,0,0,0,0-.38,1.06,1.06,0,0,0-.16-.34,1,1,0,0,0-.27-.24l-6.67-3.85a1.57,1.57,0,0,1-.66-.74,1.34,1.34,0,0,1-.09-.26l-.17,0,.17-.71c.12-.49.23-1,.32-1.46s.16-1,.23-1.49.1-1,.13-1.5.05-1,.05-1.51,0-1-.05-1.51-.07-1-.13-1.5-.14-1-.23-1.49-.2-1-.32-1.46a1.6,1.6,0,0,1,.1-1,1.64,1.64,0,0,1,.71-.74l6.6-3.81a.92.92,0,0,0,.28-.24,1.06,1.06,0,0,0,.16-.34.83.83,0,0,0,0-.38.77.77,0,0,0-.12-.35c-1.61-2.4-3.22-5.6-4.72-8.18a.9.9,0,0,0-.24-.27.91.91,0,0,0-.34-.17,1.25,1.25,0,0,0-.38,0,1.12,1.12,0,0,0-.35.12L486.87,154a1.48,1.48,0,0,1-1,.2,1.6,1.6,0,0,1-.9-.44,24.72,24.72,0,0,0-2.28-1.95,25.2,25.2,0,0,0-2.5-1.66,24.9,24.9,0,0,0-2.69-1.33,22.44,22.44,0,0,0-2.82-1,1.64,1.64,0,0,1-.83-.57,1.59,1.59,0,0,1-.31-1v-7.7a.86.86,0,0,0-.07-.36,1.06,1.06,0,0,0-.21-.31,1,1,0,0,0-.31-.21.86.86,0,0,0-.36-.07h-9.45a.86.86,0,0,0-.36.07,1.06,1.06,0,0,0-.31.21,1,1,0,0,0-.28.67v7.7a1.54,1.54,0,0,1-.34,1,1.57,1.57,0,0,1-.87.56Zm-3.32-.29a28.52,28.52,0,0,0-2.82,1.41,24.85,24.85,0,0,0-2.65,1.76,23.72,23.72,0,0,0-2.42,2.06.16.16,0,0,1-.11.05.14.14,0,0,1-.11,0c-2.25-1.3-4.49-2.58-6.73-3.89a2.34,2.34,0,0,0-.84-.26,2.43,2.43,0,0,0-.89.07,2.29,2.29,0,0,0-1.42,1.09c-1.63,2.63-3.17,5.48-4.72,8.17a2.33,2.33,0,0,0-.24,1.79,2.43,2.43,0,0,0,.41.82,2.11,2.11,0,0,0,.69.6c2.14,1.33,4.47,2.59,6.66,3.85a.18.18,0,0,1,.08.09.25.25,0,0,1,0,.12l-.16.62h0c-.07.3-.13.61-.18.92-.1.54-.18,1.06-.25,1.58s-.1,1-.14,1.57-.05,1.08-.05,1.6,0,1.05.05,1.59.08,1.07.14,1.59.15,1,.25,1.57.21,1,.33,1.54a.23.23,0,0,1,0,.12.16.16,0,0,1-.09.09c-2.45,1.31-4.93,2.85-7.35,4.25l.08.11-.07.09a2.43,2.43,0,0,0-.41.82,2.33,2.33,0,0,0,.24,1.79l5.07,8.79.09-.06.16.13a2.43,2.43,0,0,0,.82.41,2.59,2.59,0,0,0,.92.06,2.32,2.32,0,0,0,.84-.28c2.22-1.18,4.51-2.6,6.7-3.87a.2.2,0,0,1,.11,0,.22.22,0,0,1,.11.05,25.67,25.67,0,0,0,5.07,3.82,26.71,26.71,0,0,0,2.83,1.42,27.89,27.89,0,0,0,3,1.06.17.17,0,0,1,.1.06.21.21,0,0,1,0,.11v7.7a2.3,2.3,0,0,0,.18.9,2.42,2.42,0,0,0,.51.76,2.48,2.48,0,0,0,.76.51,2.44,2.44,0,0,0,.89.18h9.45a2.4,2.4,0,0,0,.89-.18,2.52,2.52,0,0,0,.77-.51,2.6,2.6,0,0,0,.51-.76,2.49,2.49,0,0,0,.18-.9v-7.7a.2.2,0,0,1,0-.11.26.26,0,0,1,.11-.07h0a26.76,26.76,0,0,0,3-1.05,25.42,25.42,0,0,0,2.81-1.41,25,25,0,0,0,2.66-1.76,26.09,26.09,0,0,0,2.42-2.06.16.16,0,0,1,.1-.05.12.12,0,0,1,.12,0l6.67,3.84a2.33,2.33,0,0,0,.86.3,2.59,2.59,0,0,0,.92-.06,2.43,2.43,0,0,0,.82-.41,2.24,2.24,0,0,0,.59-.67c1.76-2.81,3.41-5.9,5.08-8.79l-.09-.05a1.7,1.7,0,0,0,0-.22,2.38,2.38,0,0,0-.06-.92,2.43,2.43,0,0,0-.41-.82,2.18,2.18,0,0,0-.68-.6L493.25,178a.16.16,0,0,1-.07-.09.17.17,0,0,1,0-.12l.17-.7h0c.06-.27.11-.55.17-.83.09-.53.18-1.06.24-1.57s.11-1,.14-1.59.05-1.07.05-1.59,0-1.05-.05-1.59-.08-1.07-.14-1.59-.14-1-.24-1.57-.21-1-.33-1.54a.2.2,0,0,1,0-.13.3.3,0,0,1,.08-.08l6.66-3.85a2.2,2.2,0,0,0,.68-.6,2.43,2.43,0,0,0,.41-.82,2.36,2.36,0,0,0,.06-.92,2.43,2.43,0,0,0-.28-.85c-1.59-2.93-3.41-5.9-5.09-8.8l-.09.05-.16-.13a2.24,2.24,0,0,0-.82-.4,2.52,2.52,0,0,0-.91-.07,2.42,2.42,0,0,0-.87.29l-.49.29h0l-6.18,3.57a.17.17,0,0,1-.12,0,.16.16,0,0,1-.11-.05v0a28.15,28.15,0,0,0-2.42-2.05,25.68,25.68,0,0,0-2.64-1.75,26.07,26.07,0,0,0-5.82-2.47l-.1-.07a.14.14,0,0,1,0-.11v-7.7a2.34,2.34,0,0,0-.7-1.66,2.36,2.36,0,0,0-.76-.51,2.4,2.4,0,0,0-.89-.18h-9.45a2.44,2.44,0,0,0-.89.18,2.48,2.48,0,0,0-.76.51,2.34,2.34,0,0,0-.69,1.66v7.7a.17.17,0,0,1-.15.18h0A25.9,25.9,0,0,0,457.65,147.5Z" transform="translate(-44.44 -49.42)"/><path class="cls-2" d="M67,236.34a15,15,0,0,1,21.29,0,15.07,15.07,0,0,1,3.27,16.4A15,15,0,0,1,67,257.63a15.38,15.38,0,0,1-3.27-4.89A15,15,0,0,1,67,236.34Zm5.42-2a13.67,13.67,0,1,0,17.85,7.4,13.6,13.6,0,0,0-7.4-7.4,13.65,13.65,0,0,0-10.45,0Zm-1.66-11.08a24.39,24.39,0,0,0-5.44,2.32,24.76,24.76,0,0,0-2.51,1.66,24,24,0,0,0-2.3,2,1.58,1.58,0,0,1-.9.43,1.61,1.61,0,0,1-1-.2c-2.21-1.28-4.54-2.54-6.7-3.87a.84.84,0,0,0-.33-.1.93.93,0,0,0-.37,0,1.09,1.09,0,0,0-.34.17.94.94,0,0,0-.24.28c-1.61,2.44-3.23,5.59-4.72,8.17a.91.91,0,0,0-.12.35,1,1,0,0,0,0,.38,1.06,1.06,0,0,0,.16.34.92.92,0,0,0,.28.24c2,1.32,4.55,2.63,6.66,3.85a1.61,1.61,0,0,1,.67.75,1.59,1.59,0,0,1,.09.33l.14,0-.15.62c-.12.49-.23,1-.32,1.47s-.16,1-.22,1.48-.11,1-.14,1.5,0,1,0,1.51,0,1,0,1.52.08,1,.14,1.49.14,1,.22,1.49.2,1,.32,1.46a1.59,1.59,0,0,1-.1,1,1.55,1.55,0,0,1-.71.74L47,258.13h0l-.7.4a1.12,1.12,0,0,0-.28.25,1.05,1.05,0,0,0-.19.72.87.87,0,0,0,.12.34l4.36,7.57h0l.35.61a1.08,1.08,0,0,0,.24.28,1.06,1.06,0,0,0,.34.16.83.83,0,0,0,.38,0,.91.91,0,0,0,.35-.12c2.11-1.33,4.49-2.59,6.67-3.85a1.56,1.56,0,0,1,1-.2,1.58,1.58,0,0,1,.9.43h0a25.54,25.54,0,0,0,2.3,2,24.9,24.9,0,0,0,5.19,3,26.13,26.13,0,0,0,2.82,1A1.56,1.56,0,0,1,72,272.23v7.69a1,1,0,0,0,.07.36,1,1,0,0,0,.21.31,1.1,1.1,0,0,0,.31.22,1,1,0,0,0,.36.07H82.4a1,1,0,0,0,.36-.07,1.13,1.13,0,0,0,.31-.21,1.11,1.11,0,0,0,.21-.32.86.86,0,0,0,.07-.36v-7.69a1.59,1.59,0,0,1,.34-1,1.57,1.57,0,0,1,.88-.56,23.45,23.45,0,0,0,2.77-1A25.53,25.53,0,0,0,90,268.37a25.93,25.93,0,0,0,2.51-1.66,26.87,26.87,0,0,0,2.29-2,1.54,1.54,0,0,1,1-.43,1.58,1.58,0,0,1,1,.25l6.59,3.8a.77.77,0,0,0,.35.12.83.83,0,0,0,.38,0,1.06,1.06,0,0,0,.34-.16,1.08,1.08,0,0,0,.24-.28c1.57-2.73,3.16-5.45,4.72-8.18a.91.91,0,0,0,.09-.72,1,1,0,0,0-.16-.34,1.07,1.07,0,0,0-.27-.25l-6.67-3.85a1.48,1.48,0,0,1-.66-.74,1.25,1.25,0,0,1-.09-.25l-.17,0,.17-.71c.12-.48.23-1,.32-1.46s.16-1,.22-1.48.11-1,.14-1.5,0-1,0-1.52,0-1,0-1.51-.07-1-.14-1.5-.14-1-.22-1.49-.2-1-.32-1.46a1.6,1.6,0,0,1,.1-1,1.62,1.62,0,0,1,.71-.73l6.6-3.82a.92.92,0,0,0,.28-.24,1,1,0,0,0,.16-.34.81.81,0,0,0,0-.38.77.77,0,0,0-.12-.35c-1.61-2.39-3.22-5.6-4.72-8.17a.94.94,0,0,0-.24-.28,1.09,1.09,0,0,0-.34-.17,1,1,0,0,0-.38,0,.77.77,0,0,0-.35.12l-6.67,3.84a1.49,1.49,0,0,1-1,.2,1.6,1.6,0,0,1-.9-.44,24.72,24.72,0,0,0-2.28-1.95A26.33,26.33,0,0,0,90,225.6a24.72,24.72,0,0,0-5.51-2.34,1.58,1.58,0,0,1-.83-.57,1.6,1.6,0,0,1-.32-.95V214a.86.86,0,0,0-.07-.36,1.06,1.06,0,0,0-.21-.31,1,1,0,0,0-.31-.21,1,1,0,0,0-.36-.07H73a1,1,0,0,0-.36.07,1.06,1.06,0,0,0-.31.21A1,1,0,0,0,72,214v7.7a1.59,1.59,0,0,1-.34,1,1.63,1.63,0,0,1-.87.56ZM67.46,223a25.36,25.36,0,0,0-2.81,1.4A26.47,26.47,0,0,0,62,226.15a25.16,25.16,0,0,0-2.42,2.07.21.21,0,0,1-.11,0,.14.14,0,0,1-.11,0l-6.73-3.88a2.36,2.36,0,0,0-.84-.27,2.43,2.43,0,0,0-.89.07,2.6,2.6,0,0,0-.82.4,2.34,2.34,0,0,0-.6.69c-1.63,2.63-3.17,5.48-4.73,8.18a2.48,2.48,0,0,0-.29.87,2.31,2.31,0,0,0,.06.91,2.45,2.45,0,0,0,1.09,1.43c2.15,1.32,4.48,2.58,6.67,3.85a.3.3,0,0,1,.08.08.25.25,0,0,1,0,.12l-.16.62h0c-.07.31-.13.61-.18.93-.1.53-.18,1-.25,1.57s-.11,1-.14,1.58,0,1.07,0,1.59,0,1.05,0,1.6.08,1.07.14,1.58.15,1,.25,1.57.2,1.05.33,1.55a.17.17,0,0,1,0,.12.14.14,0,0,1-.08.09c-2.45,1.3-4.93,2.84-7.35,4.24l.08.11-.07.09a2.39,2.39,0,0,0-.41.83,2.32,2.32,0,0,0,.24,1.78l5.07,8.79.09-.06.16.13a2.43,2.43,0,0,0,.82.41,2.38,2.38,0,0,0,.92.06,2.32,2.32,0,0,0,.84-.28c2.22-1.18,4.51-2.6,6.7-3.87l.11,0,.11.05A25.16,25.16,0,0,0,62,267.82a26.38,26.38,0,0,0,2.65,1.75A26.71,26.71,0,0,0,67.48,271a25.87,25.87,0,0,0,3,1.06.21.21,0,0,1,.1.06.28.28,0,0,1,0,.12v7.69a2.26,2.26,0,0,0,.18.9,2.37,2.37,0,0,0,1.27,1.27,2.25,2.25,0,0,0,.89.18H82.4a2.21,2.21,0,0,0,.89-.18,2.34,2.34,0,0,0,1.28-1.27,2.45,2.45,0,0,0,.18-.9v-7.69a.21.21,0,0,1,0-.12.2.2,0,0,1,.11-.06h0a26.81,26.81,0,0,0,3-1.06,23.79,23.79,0,0,0,2.81-1.41,25.67,25.67,0,0,0,5.07-3.82.21.21,0,0,1,.11-.05.24.24,0,0,1,.12,0l6.67,3.85a2.31,2.31,0,0,0,.86.29,2.38,2.38,0,0,0,.92-.06,2.43,2.43,0,0,0,.82-.41,2.21,2.21,0,0,0,.59-.66c1.76-2.82,3.41-5.9,5.08-8.79l-.09-.06a1.7,1.7,0,0,0,0-.22,2.31,2.31,0,0,0-.06-.91,2.39,2.39,0,0,0-.41-.83,2.32,2.32,0,0,0-.68-.6l-6.67-3.85a.16.16,0,0,1-.07-.09.16.16,0,0,1,0-.12l.17-.7h0c.06-.28.11-.56.17-.84.09-.53.18-1.06.24-1.57s.11-1,.14-1.58,0-1.08,0-1.6,0-1,0-1.59-.08-1.07-.14-1.59-.15-1-.24-1.57-.21-1-.34-1.54a.17.17,0,0,1,0-.12.14.14,0,0,1,.08-.09l6.66-3.84a2.23,2.23,0,0,0,.68-.61,2.43,2.43,0,0,0,.41-.82,2.31,2.31,0,0,0,.06-.91,2.43,2.43,0,0,0-.28-.85c-1.59-2.94-3.41-5.9-5.09-8.81l-.09.06a1.07,1.07,0,0,0-.16-.14,2.6,2.6,0,0,0-.82-.4,2.36,2.36,0,0,0-.92-.06,2.25,2.25,0,0,0-.86.29l-.49.28h0L96,228.24a.2.2,0,0,1-.11,0,.24.24,0,0,1-.11-.06h0a25.14,25.14,0,0,0-2.41-2.06,25.68,25.68,0,0,0-2.64-1.75A26.64,26.64,0,0,0,87.87,223a25.87,25.87,0,0,0-3-1.06.23.23,0,0,1-.1-.07.14.14,0,0,1,0-.11V214a2.44,2.44,0,0,0-.18-.89,2.24,2.24,0,0,0-.52-.76,2.34,2.34,0,0,0-1.65-.69H73a2.25,2.25,0,0,0-.89.18A2.32,2.32,0,0,0,70.61,214v7.7a.21.21,0,0,1,0,.12.2.2,0,0,1-.11.06h0A26.81,26.81,0,0,0,67.46,223Z" transform="translate(-44.44 -49.42)"/><path class="cls-2" d="M125.62,280.81Zm3.32-12.64a6.39,6.39,0,1,1-1.87,4.51,6.38,6.38,0,0,1,1.87-4.51Zm1.38-6.34a11.47,11.47,0,0,0-4.7,2.72.38.38,0,0,1-.47.06l-3-1.71h0a.73.73,0,0,0-.54-.07.72.72,0,0,0-.45.35v0l-2.09,3.61a.74.74,0,0,0-.07.56.7.7,0,0,0,.34.45h0l2.94,1.7a.4.4,0,0,1,.19.44h0a11.51,11.51,0,0,0-.25,1.35,11.86,11.86,0,0,0,0,2.75,11.91,11.91,0,0,0,.25,1.35.41.41,0,0,1-.21.45l-2.94,1.69h0a.71.71,0,0,0-.34.44.73.73,0,0,0,.07.56l2.1,3.64h0a.7.7,0,0,0,.45.34.74.74,0,0,0,.56-.07h0l3-1.7a.39.39,0,0,1,.46.05,11.15,11.15,0,0,0,2.2,1.66,11.51,11.51,0,0,0,2.52,1.07.41.41,0,0,1,.29.38v3.42a.74.74,0,0,0,.21.52.73.73,0,0,0,.52.22h4.2a.69.69,0,0,0,.52-.22.71.71,0,0,0,.22-.52v-3.42a.39.39,0,0,1,.3-.38,11.43,11.43,0,0,0,2.51-1.07,11.08,11.08,0,0,0,2.19-1.66.39.39,0,0,1,.49,0l3,1.7a.73.73,0,0,0,.56.07.75.75,0,0,0,.45-.34v0l2.09-3.62h0a.73.73,0,0,0,.07-.56.74.74,0,0,0-.34-.44l-3-1.72a.39.39,0,0,1-.18-.43h0a11.89,11.89,0,0,0,.24-1.35,10.55,10.55,0,0,0,0-2.75,11.51,11.51,0,0,0-.24-1.35.39.39,0,0,1,.2-.45l3-1.7a.74.74,0,0,0,.34-.45.71.71,0,0,0-.07-.55v0l-2.09-3.61h0a.77.77,0,0,0-.45-.35.74.74,0,0,0-.56.08h0l-3,1.71a.39.39,0,0,1-.48-.07,11.08,11.08,0,0,0-2.19-1.64,10.55,10.55,0,0,0-2.51-1.07.39.39,0,0,1-.29-.38V258a.73.73,0,0,0-.74-.73h-4.2a.72.72,0,0,0-.73.73v3.43A.39.39,0,0,1,130.32,261.83Z" transform="translate(-44.44 -49.42)"/><path class="cls-2" d="M263,173.88a1.1,1.1,0,0,0-2.19,0v2.58h-2.58a1.1,1.1,0,0,0,0,2.19h2.58v2.58a1.1,1.1,0,1,0,2.19,0v-2.58h2.58a1.1,1.1,0,1,0,0-2.19H263Z" transform="translate(-44.44 -49.42)"/><path class="cls-2" d="M330.31,102.64ZM333.63,90a6.39,6.39,0,0,1,10.91,4.52,6.39,6.39,0,1,1-12.78,0A6.41,6.41,0,0,1,333.63,90ZM335,83.66a11.47,11.47,0,0,0-4.7,2.72.38.38,0,0,1-.47.06l-3-1.71h0a.73.73,0,0,0-.54-.07.72.72,0,0,0-.45.35v0l-2.09,3.61a.74.74,0,0,0-.07.56.7.7,0,0,0,.34.45h0l2.94,1.7a.4.4,0,0,1,.19.44h0a11.14,11.14,0,0,0-.25,1.35,11.86,11.86,0,0,0,0,2.75,11.91,11.91,0,0,0,.25,1.35.41.41,0,0,1-.21.45L324,99.39h0a.71.71,0,0,0-.34.44.73.73,0,0,0,.07.56l2.1,3.64h0a.7.7,0,0,0,.45.34.74.74,0,0,0,.56-.07h0l3-1.7a.39.39,0,0,1,.46,0,11.15,11.15,0,0,0,2.2,1.66,11.51,11.51,0,0,0,2.52,1.07.41.41,0,0,1,.29.38v3.42a.74.74,0,0,0,.21.52.77.77,0,0,0,.52.22h4.2a.73.73,0,0,0,.52-.22.71.71,0,0,0,.22-.52v-3.42a.39.39,0,0,1,.3-.38,11.18,11.18,0,0,0,4.7-2.73.39.39,0,0,1,.49,0l2.95,1.7a.73.73,0,0,0,.56.07.71.71,0,0,0,.44-.34l0,0,2.09-3.62h0a.73.73,0,0,0,.07-.56.74.74,0,0,0-.34-.44l-3-1.72a.4.4,0,0,1-.18-.43h0a11.89,11.89,0,0,0,.24-1.35,10.55,10.55,0,0,0,0-2.75,11.15,11.15,0,0,0-.24-1.35.39.39,0,0,1,.2-.45l2.95-1.7a.74.74,0,0,0,.34-.45.71.71,0,0,0-.07-.55l0,0L350.44,85h0a.77.77,0,0,0-.45-.35.78.78,0,0,0-.56.08h0l-3,1.71a.41.41,0,0,1-.48-.06,10.75,10.75,0,0,0-2.19-1.65,10.45,10.45,0,0,0-2.52-1.07.4.4,0,0,1-.28-.38V79.85a.75.75,0,0,0-.74-.73h-4.2a.73.73,0,0,0-.52.22.72.72,0,0,0-.21.51v3.43A.39.39,0,0,1,335,83.66Z" transform="translate(-44.44 -49.42)"/><path class="cls-2" d="M689.73,73.76a1.1,1.1,0,0,0-2.2,0v2.58H685a1.1,1.1,0,1,0,0,2.19h2.57v2.58a1.1,1.1,0,0,0,2.2,0V78.53h2.57a1.1,1.1,0,1,0,0-2.19h-2.57Z" transform="translate(-44.44 -49.42)"/><path class="cls-2" d="M50.86,359.69a1.1,1.1,0,1,0-2.19,0v2.58H46.1a1.1,1.1,0,1,0,0,2.19h2.57V367a1.1,1.1,0,0,0,2.19,0v-2.58h2.58a1.1,1.1,0,1,0,0-2.19H50.86Z" transform="translate(-44.44 -49.42)"/><path class="cls-2" d="M400.27,160.61ZM403.59,148a6.39,6.39,0,1,1-1.87,4.51,6.38,6.38,0,0,1,1.87-4.51Zm1.38-6.34a11.47,11.47,0,0,0-4.7,2.72.38.38,0,0,1-.47.06l-3-1.71h0a.73.73,0,0,0-.54-.06.67.67,0,0,0-.45.34v0l-2.09,3.62a.71.71,0,0,0-.07.55.67.67,0,0,0,.34.45h0l2.94,1.7a.4.4,0,0,1,.19.44h0a11.91,11.91,0,0,0-.25,1.35,11.86,11.86,0,0,0,0,2.75,11.91,11.91,0,0,0,.25,1.35.41.41,0,0,1-.21.45l-2.94,1.7h0a.67.67,0,0,0-.34.44.73.73,0,0,0,.07.56l2.1,3.64h0a.7.7,0,0,0,.45.34.71.71,0,0,0,.55-.07h0l2.94-1.7a.4.4,0,0,1,.47.05,11.25,11.25,0,0,0,4.72,2.73.4.4,0,0,1,.28.38v3.42a.73.73,0,0,0,.22.52.71.71,0,0,0,.52.22h4.2a.71.71,0,0,0,.52-.22.73.73,0,0,0,.22-.52v-3.42a.39.39,0,0,1,.3-.38,11.56,11.56,0,0,0,2.5-1.07,11.15,11.15,0,0,0,2.2-1.66.39.39,0,0,1,.49,0l2.95,1.7a.73.73,0,0,0,.56.07.71.71,0,0,0,.44-.34l0,0,2.09-3.62h0a.73.73,0,0,0,.07-.56.74.74,0,0,0-.34-.44l-3-1.72a.38.38,0,0,1-.19-.43h0a10,10,0,0,0,.25-1.35,11.86,11.86,0,0,0,0-2.75,10,10,0,0,0-.25-1.35.41.41,0,0,1,.21-.45l3-1.7a.74.74,0,0,0,.34-.45.71.71,0,0,0-.07-.55l0,0L420.39,143h0a.67.67,0,0,0-.44-.34.73.73,0,0,0-.56.07h0l-3,1.71a.41.41,0,0,1-.48-.06,11,11,0,0,0-2.19-1.65,10.62,10.62,0,0,0-2.52-1.07.4.4,0,0,1-.28-.38v-3.43a.73.73,0,0,0-.22-.51.71.71,0,0,0-.52-.22H406a.71.71,0,0,0-.52.22.73.73,0,0,0-.22.51v3.43A.38.38,0,0,1,405,141.63Z" transform="translate(-44.44 -49.42)"/><path class="cls-2" d="M360.39,144.29a1.1,1.1,0,1,0-2.19,0v2.57h-2.58a1.1,1.1,0,1,0,0,2.19h2.58v2.58a1.1,1.1,0,1,0,2.19,0v-2.58H363a1.1,1.1,0,0,0,0-2.19h-2.58Z" transform="translate(-44.44 -49.42)"/><path class="cls-2" d="M364.86,265.65a1.1,1.1,0,0,0-2.2,0v2.58h-2.57a1.1,1.1,0,1,0,0,2.19h2.57V273a1.1,1.1,0,0,0,2.2,0v-2.58h2.57a1.1,1.1,0,1,0,0-2.19h-2.57Z" transform="translate(-44.44 -49.42)"/><path class="cls-2" d="M268.8,211.3a1.1,1.1,0,1,0-2.19,0v2.58H264a1.1,1.1,0,0,0,0,2.19h2.58v2.58a1.1,1.1,0,0,0,2.19,0v-2.58h2.58a1.1,1.1,0,1,0,0-2.19H268.8Z" transform="translate(-44.44 -49.42)"/><path class="cls-2" d="M633.14,204.81a1.1,1.1,0,0,0-2.2,0v2.58h-2.57a1.1,1.1,0,1,0,0,2.19h2.57v2.58a1.1,1.1,0,0,0,2.2,0v-2.58h2.57a1.1,1.1,0,1,0,0-2.19h-2.57Z" transform="translate(-44.44 -49.42)"/><path class="cls-6" d="M472.38,285.65a28.52,28.52,0,0,1,11.68,8.42c2.91,3.54,38.54,71.8,40.83,76.25s2.29,15.68-3.11,22.59c-2.1,2.69-8.12,10.2-14.71,18.39H485.72c7.75-11.63,17.88-26.84,18.6-28.07,1.19-2,1.78-3.93-.38-7.31s-30.7-38.16-30.7-38.16S459.22,298.55,472.38,285.65Z" transform="translate(-44.44 -49.42)"/><path class="cls-7" d="M434.9,280.16s35.93,5.11,37.48,5.49,4.17,4,5.58,6.44,3.08,37.51,3.88,47.33-2.36,52.63-1.42,64.13c.16,1.91.45,4.6.83,7.75H373.77c-1.38-12.71-11-52.5-11.75-62.06-.8-9.82-4.88-44.7-3.88-47.33s3-6.63,4.47-7.26,36.5-11.56,36.5-11.56l18,2Z" transform="translate(-44.44 -49.42)"/><path class="cls-8" d="M434.9,280.16l5.94.85a5.24,5.24,0,0,1-1.23,2.44c-14,16-28.23,17.17-44.61,3.65a5.17,5.17,0,0,1-1.62-2.22l5.73-1.79,18,2Z" transform="translate(-44.44 -49.42)"/><path class="cls-9" d="M428.61,245.55l.31,8.95s1.5,18.25,1.72,21c.11,1.34,1.66,3.16,4.26,4.64-11.75,13.47-22,14.31-35.79,2.93,2.32-1.88,3.55-3.93,3.44-5.27-.22-2.77-1.72-21-1.72-21l-1.15-8.88s7.21.57,14.69,1.58C421.59,247.28,428.61,245.55,428.61,245.55Z" transform="translate(-44.44 -49.42)"/><path class="cls-10" d="M437.87,280.58s-4.16,18-4.46,21.61-5.19,40.44-4.68,46.66c.23,2.83,5.85,31.57,12,62.45h48.95c-1.2-7.52-2.23-14-2.78-17.68-2-13.17-3.33-40.55-2.89-57.46s-3.77-42.29-4.27-44.7-5.3-5.42-6.79-6Z" transform="translate(-44.44 -49.42)"/><path class="cls-11" d="M432.51,309.88c-1.48,12.12-4.17,34.27-3.78,39,0,0,23.81-25.92,23.45-28.48s-10.05-21.63-10.05-21.63S438,303.53,432.51,309.88Z" transform="translate(-44.44 -49.42)"/><path class="cls-12" d="M436.67,280.41s1.06-.94,1.43-1,6.84,2.16,6.84,2.16,9.43,14.81,9.58,16.7-23.14,21-23.14,21l2.06-17.43s3.38-17,4.43-21.25Z" transform="translate(-44.44 -49.42)"/><path class="cls-10" d="M363,294.61a28.45,28.45,0,0,0-10.15,10.21c-2.3,4-26.34,77.12-27.88,81.88s.3,15.84,6.76,21.79l3.09,2.81h26.65c-7.06-7.57-13.45-14.44-14.09-15.2-1.5-1.79-2.4-3.6-.82-7.29s24.07-42.65,24.07-42.65S378.11,305.2,363,294.61Z" transform="translate(-44.44 -49.42)"/><path class="cls-10" d="M396.25,284s7,17,7.92,20.59,11.7,39.05,12.21,45.27c.23,2.77-.59,30.8-1.57,61.44H366.38c0-3.2-.05-5.88-.07-7.8-.18-13.32-3.33-40.55-6.51-57.17s-3.16-42.33-3.06-44.79,4.34-6.21,5.72-7Z" transform="translate(-44.44 -49.42)"/><path class="cls-11" d="M406.31,312c3.42,11.72,9.69,33.13,10.07,37.83,0,0-27.71-21.7-27.77-24.28s6.39-23,6.39-23S399.89,306.65,406.31,312Z" transform="translate(-44.44 -49.42)"/><path class="cls-12" d="M397.4,283.63a5,5,0,0,0-1.57-.72c-.38,0-6.4,3.23-6.4,3.23s-6.88,16.16-6.73,18.05S409,321.09,409,321.09l-4.88-16.86S398,288,396.25,284Z" transform="translate(-44.44 -49.42)"/><path class="cls-9" d="M384.2,251l-.53.14h0a7.4,7.4,0,1,0,6.28.92c.39,2.16.29,4.88-2.46,5.4l-.31-4.25A2.54,2.54,0,0,0,384.2,251Z" transform="translate(-44.44 -49.42)"/><path class="cls-9" d="M437.33,246.16a4.9,4.9,0,0,1,.54,0h0a7.4,7.4,0,1,1-6,2c0,2.19.6,4.85,3.4,4.86l-.47-4.23A2.54,2.54,0,0,1,437.33,246.16Z" transform="translate(-44.44 -49.42)"/><path class="cls-13" d="M407.41,211.81h0a25.37,25.37,0,0,0-22.9,27.5l2.09,22.92a25.39,25.39,0,0,0,27.5,22.91h0a25.37,25.37,0,0,0,22.9-27.5l-2.09-22.92A25.38,25.38,0,0,0,407.41,211.81Z" transform="translate(-44.44 -49.42)"/><path class="cls-14" d="M386.07,228a25,25,0,0,0-1.56,11.28l2.09,22.92a25.38,25.38,0,0,0,25.09,23c-14.65-1.13-17.36-18.44-18.48-27.56s2.29-11.16,3.65-11.61,22.64-4,27.34-4.53,7.08,2.07,7.08,2.07l2-2.88-1.9-6.16s1.62.05,3.54,0a25.65,25.65,0,0,0-.93-4.77,40.13,40.13,0,0,1-8.32-3.75c-5.61-3.62-32.41.9-36.75.9A6.9,6.9,0,0,0,386.07,228Z" transform="translate(-44.44 -49.42)"/><path class="cls-15" d="M433.34,246.87s.16,1.69.3,3.25,1.76,3.18,2.95,3.07l-.32-3.55a3.55,3.55,0,0,1,3.5-3c8.88-12.31,5.92-30.29-5.52-38.71S400,201,396.16,202.71s-7.33,8.79-7.33,8.79-3.64-2.7-6.63-.85-11.65,22.54-11.2,27.47S381.89,252,381.89,252a3.55,3.55,0,0,1,4,2.28l.32,3.55c1.2-.11,2.49-2,2.35-3.55l-.29-3.25.33-.19c3.05-2,2.45-8.06,2.45-8.06l-2.82-3.94,5.59-7.35,6.43-2.11,14.61.56s17.23,2.14,15.73,7.15S433.34,246.87,433.34,246.87Z" transform="translate(-44.44 -49.42)"/><path class="cls-16" d="M433.34,246.87c.18,1.93,1.47,10.56,3.72,10.35,6.7-14.12,12.89-28.85,2.91-43.32-1.18,9.31-10.45,15-19.74,16.94,4.92,1.07,11.28,3.08,10.34,6.21-1.51,5,2.77,9.82,2.77,9.82Zm-61.7-13.08a14.53,14.53,0,0,0-.64,4.33c.34,3.81,13,22.17,15.81,26.34,1.46-.13,1.66-11,1.44-13.47l.33-.19c3.05-2,2.45-8.06,2.45-8.06l-2.82-3.94,5.59-7.35,6.14-2c-3.09-1.24-4-2.55-4-2.55C383.27,239.71,375.91,239,371.64,233.79Z" transform="translate(-44.44 -49.42)"/><path class="cls-15" d="M382.09,247.27s-10.6-23,10.73-26.91c0,0,5.64-11.15,16.95-8.35s18.39,2.71,23.46-2.28c0,0,2.91,5.47-.62,10.26,10.7,8.3,7,18.95,2.61,24.7-1.76-11.91-33.14,1.35-37.24-10.1C397.57,245.53,386.1,242.81,382.09,247.27Z" transform="translate(-44.44 -49.42)"/><path class="cls-16" d="M382.09,247.27a33.34,33.34,0,0,1-2.55-10c4.12-.39,9.47-3.36,16.42-10.38,0,0,2.83,4.17,15.93,4.7,8,.33,18.07-2.61,23.77-8.75,6.82,7.77,3.45,16.75-.44,21.86-1.76-11.91-33.14,1.35-37.24-10.1C397.57,245.53,386.1,242.81,382.09,247.27Z" transform="translate(-44.44 -49.42)"/><path class="cls-17" d="M690.29,249.75c-4.49-16.81-20.15-7.57-26.86,6.82s-22.06,70.54-35.35,85.07c-5.14,5.64-3.57,6.11,1.16,3.37C652.85,331.33,696.46,272.89,690.29,249.75Z" transform="translate(-44.44 -49.42)"/><path class="cls-18" d="M624.91,346c-.16.76.55.79,1.9.24,35.78-30.27,54.79-97.93,54.85-98.15a.7.7,0,0,0-.48-.86.71.71,0,0,0-.87.48C680.25,248,661,316.53,624.91,346Z" transform="translate(-44.44 -49.42)"/><path class="cls-18" d="M650.63,258.71c-7.82-12.26-18-.93-19.66,12.22s.24,61.76-6.66,76.7c-2.68,5.79-1.3,5.77,1.77,2.38C641.43,333.15,661.4,275.58,650.63,258.71Z" transform="translate(-44.44 -49.42)"/><path class="cls-19" d="M622.89,351.92c.06.64.64.49,1.57-.3,20.85-33.15,18.89-91.84,18.89-92a.59.59,0,0,0-.61-.57.58.58,0,0,0-.56.61C642.18,259.82,644.17,319.31,622.89,351.92Z" transform="translate(-44.44 -49.42)"/><path class="cls-18" d="M689.4,300.42c13.51,1.41,8.29,14.62-2,21.55s-51.72,25.62-61.32,37.64c-3.71,4.66-4.27,3.5-2.73-.49C631,339.25,670.8,298.48,689.4,300.42Z" transform="translate(-44.44 -49.42)"/><path class="cls-19" d="M623.11,362.59c-.57.22-.68-.33-.42-1.43,19-31.3,68.86-54.2,69-54.28a.55.55,0,1,1,.46,1C692,308,641.46,331.17,623.11,362.59Z" transform="translate(-44.44 -49.42)"/><path class="cls-15" d="M496.39,283.54,493,313s5.07,69.06,7.56,98.28h37.66l.83-117.53Z" transform="translate(-44.44 -49.42)"/><path class="cls-15" d="M516.36,309.11l-1.65,10.42L518,411.3h45.92c.76-6.35,1.45-11.78,2-15.7,3.45-24.13,4.63-57.68,4.61-65.62s-9.21-19.72-12.37-20.58S516.36,309.11,516.36,309.11Z" transform="translate(-44.44 -49.42)"/><path class="cls-20" d="M501,167.42s-1.57-2.91-2.81-2.37S455.39,226.77,454,232s-.82,14.59,7.22,27.54S486.46,304.3,487.07,305s10-5.69,11-7.47c0,0,.41-.59-.19-1.78s-21.07-49.66-22.37-53.14S510.7,196,512.44,192.5,520.88,170.94,501,167.42Z" transform="translate(-44.44 -49.42)"/><path class="cls-21" d="M534.32,149.9l-18.1,12.94s-12.91,50.56-13,52.86-5,30.18-5,30.18,18.1,7.18,20.69.29,31.61-56.32,33-64.08-2-26.15-3.74-28.16S534.32,149.9,534.32,149.9Z" transform="translate(-44.44 -49.42)"/><path class="cls-20" d="M516.1,158.42s-16.39,5.77-17.9,6.63-10.36,33.13-11.08,36.15,4,58.33,4,63.22-6.18,65.95-6.32,66.95a1.81,1.81,0,0,0,1.87,2.16c1.43,0,17.53-30.32,18.82-33.77s-2.89-55.45-2.89-55.45l10.94-74.43Z" transform="translate(-44.44 -49.42)"/><path class="cls-22" d="M564.77,166.6s23.5,23.68,24.36,25.12-23.56,82.33-23.84,86.06,12.07,58.77,12.5,60.2a2.79,2.79,0,0,1-.36,1.44,5.28,5.28,0,0,1-1.94,1.72c-.51.36-58-8.9-62.57-11.78s-14.51-47.55-14.51-53.59,3.47-29.13,3.47-29.13l28.28-47.88S550.59,168.12,564.77,166.6Z" transform="translate(-44.44 -49.42)"/><path class="cls-23" d="M561.05,162.88s27.22,27.4,28.08,28.84-23.56,82.33-23.84,86.06,12.07,58.77,12.5,60.2a2.79,2.79,0,0,1-.36,1.44,5.28,5.28,0,0,1-1.94,1.72c-.26.19-15.55-2.17-31-4.89C557.9,317,557.2,285,556,283.05c-1.36-2.27-8.51-7.16-7.42-7.52s8.41-.54,9-2.35,10.86-59.09,10.86-59.09l6.88-4.65s3.08-22.27.91-25.53-16.51-15.58-16.62-15.68C561.38,167.35,559.4,163.05,561.05,162.88Z" transform="translate(-44.44 -49.42)"/><path class="cls-24" d="M585.85,188.11a41.53,41.53,0,0,1,6,6c2.46,3.21,33.12,67.31,33.75,73.31S624,283.6,613,296.39,577.58,341,576.79,341.67s-10-8-10.78-10.09c0,0-.35-.71.52-1.91s31.65-50.77,33.67-54.35-30.46-57.15-31.77-61.23S563.47,188.54,585.85,188.11Z" transform="translate(-44.44 -49.42)"/><path class="cls-14" d="M551.52,127.4c.17,8.95-2.15,18.21-1.57,27.18.12,1.83,1,2.44,3.26,3.9,3.12,4.66-5.43,19.37-11.05,20.25-.37.05-9.54-7.13-16-8.8-3.33-.85-6.07,3.4-6.32,3.22-1.35-1,1.55-8.59.61-11.48,1.14-.31,2.16-2.86,3-3.6,5.25-4.85,3.54-16.95-.77-21.52C519.41,133.13,551.52,127.4,551.52,127.4Z" transform="translate(-44.44 -49.42)"/><path class="cls-8" d="M557.45,162c-.72,2-18.09,25.21-18.09,25.21s-.62.83-1.53-.23-11.61-16-11.61-16L550,153.28l-.54-4.07C549.8,148.84,558.18,159.92,557.45,162Z" transform="translate(-44.44 -49.42)"/><path class="cls-8" d="M525.6,154.46s0,0-.09,0c-8.13-.57-9.36,22.45-7.93,27,0,0,4.94-7.54,8.33-10.54C527.45,169.48,522.64,159.08,525.6,154.46Z" transform="translate(-44.44 -49.42)"/><path class="cls-24" d="M555.4,155.38S525,193.05,522.86,196.21s-18.68,42.1-21,50.43c0,0,25.43-31.75,29-34.62s16.89-13.94,16.89-13.94a1.91,1.91,0,0,0,.18-1.22c-.18-.51-3.88-8.87-3.88-8.87s11.06,1.65,12.07,1.58,6-24.76,6.11-25.48S555.4,155.38,555.4,155.38Z" transform="translate(-44.44 -49.42)"/><path class="cls-24" d="M525.66,154.41s-8,1.86-9.33,2.58-11.49,17.67-11.78,19.11a.91.91,0,0,0,.43,1,26.82,26.82,0,0,1,2.91,1.83c.22.21-3.55.64-3.55.64a.74.74,0,0,0-.36.83c.07.66-1.36,63.94-1.36,63.94s12.54-70,14.39-74.57,6.85-11.89,6.85-11.89Z" transform="translate(-44.44 -49.42)"/><path class="cls-9" d="M512,114.36a7.17,7.17,0,1,1-7.12,7.21A7.17,7.17,0,0,1,512,114.36Z" transform="translate(-44.44 -49.42)"/><path class="cls-9" d="M559.82,114.09a7.17,7.17,0,1,1-7.13,7.2A7.16,7.16,0,0,1,559.82,114.09Z" transform="translate(-44.44 -49.42)"/><path class="cls-13" d="M533.43,77.53h0c13.5-.08,24.61,11.89,24.68,26.62l.13,24.32c.07,14.73-10.91,26.84-24.41,26.92h0c-13.5.08-24.61-11.9-24.68-26.62L509,104.45C509,89.72,519.93,77.61,533.43,77.53Z" transform="translate(-44.44 -49.42)"/><path class="cls-14" d="M557.16,96.92a28.6,28.6,0,0,1,1,7.23l.13,24.32c.07,13.54-9.21,24.87-21.2,26.67l-2.1.21h0c13.4-1.32,16.24-18.93,16.24-24.24V117.32c0-13-7.21-14.39-12.14-14.39H514.55a4.77,4.77,0,0,0-4.3,2.91l-1.22-.93v-.46a27.92,27.92,0,0,1,7.92-19.8c12.29,2.4,32.73,6.49,34.14,7.37C551.84,92.5,554.34,94.55,557.16,96.92Z" transform="translate(-44.44 -49.42)"/><path class="cls-25" d="M505.68,97.13l4.41,4.43s2.11-8.23,19.89-5.69-16.39-16.52-20.26-14.44S502.47,89.63,505.68,97.13Z" transform="translate(-44.44 -49.42)"/><path class="cls-15" d="M551.86,97.53s-17.49,1.92-26.4-3.73S509,85.52,506.74,88.59c-2.17,2.92,6.54,10.78,3,24.17-.2.72-.65,13.1-.92,13.86-.08-4.85-1.64-17.22-3.24-20.32-4.79-9.24-12.28-16.19-2.55-30,6-8.51,16.11-12.5,20.83-8.19,15.35,14,36.49-4.2,36.62,19,0,0,11.39,3.84.81,27.14a3,3,0,0,0-3.13,3.36l.09,12.44C549.74,130,549.57,107.62,551.86,97.53Z" transform="translate(-44.44 -49.42)"/><rect class="cls-26" x="495.53" y="258.81" width="58.21" height="93.82" rx="4.35"/><rect class="cls-27" x="546.82" y="258.81" width="47.37" height="93.82" rx="3.66"/><path class="cls-8" d="M530.07,343.86h51.29c0-9.19,9.9-10.21,9.9-10.21H540S530.07,334.67,530.07,343.86Z" transform="translate(-44.44 -49.42)"/><rect class="cls-28" x="492.67" y="337.53" width="58.81" height="24.35" rx="2.87"/><path class="cls-29" d="M591.38,387H603c.26,0,3.1.11,4.7,3.58,1.67,3.64,1.49,7.28,6.44,7.28h2.13c5,0,4.82-3.72,6.45-7.28s4.43-3.58,4.7-3.58h11.06a2.87,2.87,0,0,1,2.86,2.87v18.62a2.87,2.87,0,0,1-2.86,2.86H591.38a2.87,2.87,0,0,1-2.86-2.86V389.82A2.87,2.87,0,0,1,591.38,387Z" transform="translate(-44.44 -49.42)"/><path class="cls-8" d="M530.07,376h51.29c0-9.19,9.9-10.2,9.9-10.2H540S530.07,366.81,530.07,376Z" transform="translate(-44.44 -49.42)"/><path class="cls-30" d="M647,360.68H600.33c0-9.19-9.07-10.21-9.07-10.21h46.65S647,351.49,647,360.68Z" transform="translate(-44.44 -49.42)"/><path class="cls-31" d="M598.69,318.42h35.75A1.58,1.58,0,0,1,636,320h0a1.58,1.58,0,0,1-1.58,1.57H598.69a1.58,1.58,0,0,1-1.58-1.57h0A1.58,1.58,0,0,1,598.69,318.42Z" transform="translate(-44.44 -49.42)"/><path class="cls-31" d="M598.69,335.79h35.75a1.58,1.58,0,0,1,1.58,1.57h0a1.58,1.58,0,0,1-1.58,1.58H598.69a1.58,1.58,0,0,1-1.58-1.58h0A1.58,1.58,0,0,1,598.69,335.79Z" transform="translate(-44.44 -49.42)"/><path class="cls-31" d="M598.69,372.05h35.75a1.58,1.58,0,0,1,1.58,1.58h0a1.58,1.58,0,0,1-1.58,1.58H598.69a1.58,1.58,0,0,1-1.58-1.58h0A1.58,1.58,0,0,1,598.69,372.05Z" transform="translate(-44.44 -49.42)"/><path class="cls-30" d="M547.55,317.14h34.54a1.58,1.58,0,0,1,1.58,1.58h0a1.57,1.57,0,0,1-1.58,1.57H547.55a1.57,1.57,0,0,1-1.57-1.57h0A1.58,1.58,0,0,1,547.55,317.14Z" transform="translate(-44.44 -49.42)"/><rect class="cls-32" x="501.53" y="306.84" width="37.69" height="3.15" rx="1.58"/><path class="cls-30" d="M547.55,381.29h34.54a1.58,1.58,0,0,1,1.58,1.57h0a1.58,1.58,0,0,1-1.58,1.58H547.55a1.58,1.58,0,0,1-1.57-1.58h0A1.58,1.58,0,0,1,547.55,381.29Z" transform="translate(-44.44 -49.42)"/><rect class="cls-26" x="471.88" y="299.51" width="35.23" height="56.78" rx="2.63"/><path class="cls-27" d="M505.13,299.51h24.24a2.21,2.21,0,0,1,2.21,2.21v52.35a2.22,2.22,0,0,1-2.22,2.22H505.13a2.22,2.22,0,0,1-2.22-2.22V301.72A2.22,2.22,0,0,1,505.13,299.51Z"/><path class="cls-8" d="M510.33,370.49h31c0-5.57,6-6.18,6-6.18h-31S510.33,364.92,510.33,370.49Z" transform="translate(-44.44 -49.42)"/><rect class="cls-28" x="470.15" y="347.15" width="35.59" height="14.74" rx="1.73"/><path class="cls-29" d="M547.43,396.57h7.06a3.3,3.3,0,0,1,2.84,2.16c1,2.21.9,4.41,3.9,4.41h1.29c3,0,2.92-2.26,3.9-4.41a3.23,3.23,0,0,1,2.84-2.16H576a1.73,1.73,0,0,1,1.73,1.73v11.27A1.74,1.74,0,0,1,576,411.3H547.43a1.74,1.74,0,0,1-1.73-1.73V398.3A1.73,1.73,0,0,1,547.43,396.57Z" transform="translate(-44.44 -49.42)"/><path class="cls-8" d="M510.33,389.94h31c0-5.56,6-6.18,6-6.18h-31S510.33,384.38,510.33,389.94Z" transform="translate(-44.44 -49.42)"/><path class="cls-30" d="M581.08,380.67H552.85c0-5.57-5.49-6.18-5.49-6.18h28.23S581.08,375.1,581.08,380.67Z" transform="translate(-44.44 -49.42)"/><path class="cls-31" d="M551.85,355.09h21.64a1,1,0,0,1,1,1h0a1,1,0,0,1-1,.95H551.85a1,1,0,0,1-1-.95h0A1,1,0,0,1,551.85,355.09Z" transform="translate(-44.44 -49.42)"/><path class="cls-31" d="M551.85,365.6h21.64a1,1,0,0,1,1,1h0a1,1,0,0,1-1,.95H551.85a1,1,0,0,1-1-.95h0A1,1,0,0,1,551.85,365.6Z" transform="translate(-44.44 -49.42)"/><path class="cls-31" d="M551.85,387.55h21.64a1,1,0,0,1,1,.95h0a1,1,0,0,1-1,1H551.85a1,1,0,0,1-1-1h0A1,1,0,0,1,551.85,387.55Z" transform="translate(-44.44 -49.42)"/><rect class="cls-32" x="475.51" y="304.9" width="22.81" height="1.91" rx="0.95"/><rect class="cls-32" x="475.51" y="328.58" width="22.81" height="1.91" rx="0.95"/><path class="cls-30" d="M520.91,393.14h20.9a1,1,0,0,1,1,.95h0a1,1,0,0,1-1,1h-20.9a1,1,0,0,1-.95-1h0A1,1,0,0,1,520.91,393.14Z" transform="translate(-44.44 -49.42)"/><path class="cls-15" d="M183,271.77l41,.2a1,1,0,0,1,1,1v4.29a1,1,0,0,1-1,1l-41-.2a1,1,0,0,1-1-1v-4.29a1,1,0,0,1,1-1Zm40,2.15-39-.19v2.33l39,.19Z" transform="translate(-44.44 -49.42)"/><path class="cls-15" d="M129.15,333l54.14-61.7a1,1,0,0,1,1.38-.09l3.22,2.83a1,1,0,0,1,.1,1.38l-54.14,61.69a1,1,0,0,1-1.38.1l-3.23-2.83a1,1,0,0,1-.09-1.38Zm55-59.67-52.85,60.22,1.75,1.54,52.85-60.22Z" transform="translate(-44.44 -49.42)"/><path class="cls-24" d="M183.54,269.56a5.46,5.46,0,1,1-4.73,6.1A5.46,5.46,0,0,1,183.54,269.56Z" transform="translate(-44.44 -49.42)"/><path class="cls-15" d="M129.12,333.29,167.18,406a1,1,0,0,0,1.32.42l3.8-2a1,1,0,0,0,.42-1.32L134.65,330.4a1,1,0,0,0-1.32-.42l-3.8,2a1,1,0,0,0-.41,1.32Zm39.34,70.95-37.16-71,2.07-1.08,37.16,71Z" transform="translate(-44.44 -49.42)"/><path class="cls-24" d="M167,407.76a5.45,5.45,0,1,0-3.15-7A5.46,5.46,0,0,0,167,407.76Z" transform="translate(-44.44 -49.42)"/><path class="cls-24" d="M132.23,328a5.46,5.46,0,1,1-4.73,6.1A5.46,5.46,0,0,1,132.23,328Z" transform="translate(-44.44 -49.42)"/><rect class="cls-33" x="68.6" y="353.73" width="89.84" height="13.78" rx="6.89"/><rect class="cls-34" x="95.7" y="353.73" width="89.84" height="13.78" rx="6.89"/><path class="cls-8" d="M215.15,285.76h20a10.61,10.61,0,0,0,10.57-10.57H204.58A10.6,10.6,0,0,0,215.15,285.76Z" transform="translate(-44.44 -49.42)"/><path class="cls-35" d="M215.53,283.65h12a6.37,6.37,0,0,0,6.36-6.35H209.18A6.37,6.37,0,0,0,215.53,283.65Z" transform="translate(-44.44 -49.42)"/><path class="cls-24" d="M208.41,270.34h33.53a8.1,8.1,0,0,1,8.08,8.08h-49.7A8.1,8.1,0,0,1,208.41,270.34Z" transform="translate(-44.44 -49.42)"/><path class="cls-25" d="M208.41,270.34h15.33a8.1,8.1,0,0,1,8.09,8.08H200.32A8.1,8.1,0,0,1,208.41,270.34Z" transform="translate(-44.44 -49.42)"/><path class="cls-36" d="M613.09,119.91a.74.74,0,0,1-1.21-.86A31.32,31.32,0,1,1,607,144.82a.74.74,0,0,1,.55-.89.73.73,0,0,1,.89.54,29.91,29.91,0,1,0,4.69-24.56Z" transform="translate(-44.44 -49.42)"/><path class="cls-36" d="M651.79,123.5c-.83.72-3.07,3-4.49,7.93,1.23.82,4.62,3.41,3,6.17l-6.62,11.45c-1.61,2.68-5.5,1.06-6.82.41-3.54,3.68-4.41,6.79-4.62,7.86a10.36,10.36,0,0,0,6.07,1.28,6.5,6.5,0,0,0,4.83-2.71L656,133.63a6.55,6.55,0,0,0-.08-5.51,10.32,10.32,0,0,0-4.15-4.62Zm-5.85,8.05c1.76-6.53,5.07-9.07,5.41-9.32a.63.63,0,0,1,.72,0,11.72,11.72,0,0,1,5,5.44,7.89,7.89,0,0,1,0,6.64l-12.85,22.26a7.88,7.88,0,0,1-5.79,3.35,11.89,11.89,0,0,1-7.21-1.63.65.65,0,0,1-.34-.62s.34-4.33,5.35-9.37a.64.64,0,0,1,.79-.13s4.25,2.46,5.55.27L649.22,137c1.24-2.13-2.62-4.48-3-4.68A.63.63,0,0,1,645.94,131.55Z" transform="translate(-44.44 -49.42)"/><text class="cls-37" transform="translate(567.28 92.64)">24</text><path class="cls-2" d="M438.76,85.65h42.7a6.67,6.67,0,0,1,6.66,6.65v37.2a.74.74,0,0,1-.46.68.72.72,0,0,1-.81-.16l-11.34-11.34H438.76a6.67,6.67,0,0,1-6.65-6.65V92.3A6.67,6.67,0,0,1,438.76,85.65Z" transform="translate(-44.44 -49.42)"/><path class="cls-8" d="M433.72,81.32h42.7A7.55,7.55,0,0,1,484,88.85v37.2a1.56,1.56,0,0,1-.27.9,1.66,1.66,0,0,1-.73.6h0a1.65,1.65,0,0,1-1.77-.35L470.1,116.11H433.72a7.55,7.55,0,0,1-7.53-7.53V88.85a7.55,7.55,0,0,1,7.53-7.53Zm42.7,1.76h-42.7a5.8,5.8,0,0,0-5.78,5.77v19.73a5.8,5.8,0,0,0,5.78,5.78h37.11l11.36,11.36V88.85a5.79,5.79,0,0,0-5.77-5.77Z" transform="translate(-44.44 -49.42)"/><path class="cls-8" d="M433.36,88.68a.49.49,0,0,1,0-1h43.41a.49.49,0,1,1,0,1Z" transform="translate(-44.44 -49.42)"/><path class="cls-8" d="M433.36,93.37a.49.49,0,0,1-.48-.48.48.48,0,0,1,.48-.48H438a.47.47,0,0,1,.48.48.48.48,0,0,1-.48.48Zm10.72,0a.49.49,0,0,1-.48-.48.48.48,0,0,1,.48-.48h32.69a.48.48,0,0,1,.49.48.49.49,0,0,1-.49.48Z" transform="translate(-44.44 -49.42)"/><path class="cls-8" d="M433.36,98.06a.49.49,0,0,1-.48-.48.48.48,0,0,1,.48-.48h43.41a.48.48,0,0,1,.49.48.49.49,0,0,1-.49.48Z" transform="translate(-44.44 -49.42)"/><path class="cls-8" d="M445.44,104.42a.48.48,0,0,1-.48-.48.47.47,0,0,1,.48-.48h31.33a.48.48,0,0,1,.49.48.49.49,0,0,1-.49.48Z" transform="translate(-44.44 -49.42)"/><path class="cls-8" d="M459.43,109.51A.49.49,0,0,1,459,109a.48.48,0,0,1,.48-.48h17.34a.48.48,0,0,1,.49.48.49.49,0,0,1-.49.48Z" transform="translate(-44.44 -49.42)"/><path class="cls-8" d="M449.49,109.51A.49.49,0,0,1,449,109a.48.48,0,0,1,.48-.48h6.2a.47.47,0,0,1,.48.48.48.48,0,0,1-.48.48Z" transform="translate(-44.44 -49.42)"/><path class="cls-2" d="M685.26,416.28a1.1,1.1,0,1,0-2.19,0v2.57h-2.58a1.1,1.1,0,1,0,0,2.2h2.58v2.57a1.1,1.1,0,1,0,2.19,0v-2.57h2.58a1.1,1.1,0,0,0,0-2.2h-2.58Z" transform="translate(-44.44 -49.42)"/><path class="cls-18" d="M257.38,398.93H220.25a5.55,5.55,0,0,0,0,11.1h37.13a5.57,5.57,0,0,0,5.55-5.55,5.57,5.57,0,0,0-5.55-5.55Z" transform="translate(-44.44 -49.42)"/><path class="cls-8" d="M174.32,399.58h47.49a4.92,4.92,0,0,1,4.9,4.9h0a4.92,4.92,0,0,1-4.9,4.91H174.32Z" transform="translate(-44.44 -49.42)"/><path class="cls-17" d="M174.32,398.93a.65.65,0,0,0,0,1.3h47.49a4.26,4.26,0,0,1,0,8.51H174.32a.65.65,0,0,0,0,1.29h47.49a5.55,5.55,0,0,0,0-11.1Z" transform="translate(-44.44 -49.42)"/><path class="cls-38" d="M255.67,404.48a5.57,5.57,0,0,0-5.55-5.55H255a5.55,5.55,0,0,1,0,11.1h-4.83a5.57,5.57,0,0,0,5.55-5.55Z" transform="translate(-44.44 -49.42)"/><path class="cls-38" d="M248.67,404.48a5.57,5.57,0,0,0-5.55-5.55H248a5.55,5.55,0,0,1,0,11.1h-4.83a5.57,5.57,0,0,0,5.55-5.55Z" transform="translate(-44.44 -49.42)"/><path class="cls-29" d="M184.09,389.21H216.6a4.86,4.86,0,0,1,0,9.72H184.09a4.86,4.86,0,0,1,0-9.72Z" transform="translate(-44.44 -49.42)"/><path class="cls-8" d="M256.81,389.78H215.23a4.3,4.3,0,0,0-4.29,4.29h0a4.3,4.3,0,0,0,4.29,4.3h41.58Z" transform="translate(-44.44 -49.42)"/><path class="cls-39" d="M256.81,389.21a.57.57,0,1,1,0,1.14H215.23a3.73,3.73,0,0,0,0,7.45h41.58a.57.57,0,0,1,.57.57.56.56,0,0,1-.57.56H215.23a4.86,4.86,0,0,1,0-9.72Z" transform="translate(-44.44 -49.42)"/><path class="cls-36" d="M185.58,394.07a4.88,4.88,0,0,1,4.86-4.86h-4.22a4.86,4.86,0,1,0,0,9.72h4.22a4.87,4.87,0,0,1-4.86-4.86Z" transform="translate(-44.44 -49.42)"/><path class="cls-36" d="M191.71,394.07a4.87,4.87,0,0,1,4.86-4.86h-4.23a4.86,4.86,0,0,0,0,9.72h4.23a4.85,4.85,0,0,1-4.86-4.86Z" transform="translate(-44.44 -49.42)"/><rect class="cls-40" x="268.17" y="351.74" width="169.83" height="10.14" rx="5.07"/><path class="cls-41" d="M477.68,411.3H318a5.47,5.47,0,0,1-4.44-2.39,4.74,4.74,0,0,1,4.16-2.39H477.39a5.44,5.44,0,0,1,4.44,2.39A4.73,4.73,0,0,1,477.68,411.3Z" transform="translate(-44.44 -49.42)"/><path class="cls-41" d="M481,401.16H353.28a6.17,6.17,0,0,1-6.21-6.64l5.23-82.73a7.18,7.18,0,0,1,7.05-6.63H487.08a6.16,6.16,0,0,1,6.21,6.63l-5.22,82.73A7.21,7.21,0,0,1,481,401.16Z" transform="translate(-44.44 -49.42)"/><path class="cls-8" d="M481,401.16h-124a6.17,6.17,0,0,1-6.21-6.64l5.22-82.73a7.2,7.2,0,0,1,7.06-6.63h124a6.16,6.16,0,0,1,6.21,6.63l-5.22,82.73A7.21,7.21,0,0,1,481,401.16Z" transform="translate(-44.44 -49.42)"/><path class="cls-42" d="M474.26,401.16H461.5L355.76,316.64l.3-4.85a7,7,0,0,1,1.52-3.89l116.68,93.26Zm-102.36-96,115.35,92.19a7,7,0,0,0,.82-2.83l.81-12.86-95.72-76.5Z" transform="translate(-44.44 -49.42)"/><rect class="cls-27" x="268.17" y="351.74" width="39.16" height="10.14" rx="5.07"/><path class="cls-43" d="M479.76,403.69H346.87a2.73,2.73,0,0,1-2.68-2.53h0a2.37,2.37,0,0,1,2.39-2.54H479.45a2.73,2.73,0,0,1,2.69,2.54h0A2.37,2.37,0,0,1,479.76,403.69Z" transform="translate(-44.44 -49.42)"/><path class="cls-15" d="M328.53,298.65a26.28,26.28,0,0,1,.2-12.23l-20.94-1.77,29.15-12.77s6.18-7.59,9.1-15.05-5-26.41-8-31.11-9.14-4-13.21-1.46c0,0-6.1-9.2-13.39-9.81S281,216,274.29,233s4.09,34-6.74,51.48a4.33,4.33,0,0,0,.45,4.07c1.41,1.87,18.49,21.78,57.44,13.76,0,0,3.1-.72,3.09-3.63Z" transform="translate(-44.44 -49.42)"/><path class="cls-16" d="M301.08,303.86c2.15-23.42,3.66-43.77,3.66-43.77l-2-6.6s-17.93,14.49-30.66-.76c.6,10.47,2.1,21-4.54,31.72a4.33,4.33,0,0,0,.45,4.07l.06.08,0,0,.05.07.05.06,0,0,.09.11h0l.11.13,0,0,.09.11.08.09.06.06.13.16h0l.17.18,0,0,.14.15.1.11.1.09.06.07.14.15.22.22.16.15.11.11c3.73,3.6,12.41,10.27,27,12.58h0c1.27.2,2.58.37,3.94.5Z" transform="translate(-44.44 -49.42)"/><path class="cls-16" d="M328.53,298.65c-1.33-6.63-.4-9.29,1.45-18.14l-33.32-5.24-14.56,2.82a97.34,97.34,0,0,1-5.08,18c8.87,5.49,24.53,11.08,48.42,6.16,0,0,3.1-.72,3.09-3.63Z" transform="translate(-44.44 -49.42)"/><path class="cls-29" d="M284.32,300.09c9.22,2.89,21.82,6.35,32.69,11.69.75.37-.78,3.26-.08,3.65a25.63,25.63,0,0,1,4.77,3.88c5.08,5,15.41,44.31,14.48,48.22-1.48,6.3-14.53,23.6-14.53,23.6-2.59,5-5.81,12.29-9,20.17H247.86c4.52-14.68,6.2-24.62,6.32-33.58h0c3.46-30.46-12.92-37.09-12.92-37.09l17-39.92c6.6-2.33,19.76-1.46,19.76-1.46C281.47,299.25,281.2,299.11,284.32,300.09Z" transform="translate(-44.44 -49.42)"/><path class="cls-36" d="M312.69,411.3h-9.15c1.7-4.56,9.63-26.14,11.33-30.74-7.71-1.35-18.32-3.18-20.19-3.63s-9,3.65-9,3.65l.79-4.66-7.69,7.75L291.9,359.1s21.46,4.85,26,5.68,1.78.2,2.63.13c2.54-7.13-1.62-9.13-1.12-12.58s.63-36.94.63-36.94c2.78,1.43,4,4.56,5.6,9.49,1,3.24,6.52,24.55,8.78,37.16.54,3,1,5.25,1.24,7C330.6,382,319.18,395.1,312.69,411.3Z" transform="translate(-44.44 -49.42)"/><path class="cls-9" d="M300.32,263.29,297.08,273s-4.91,23-6.05,26c-.39,1-1.69,1.35-3.68,1.3,2.87,4.12,8.45,10.39,16.51,11.92,5.15,1,8.75,0,11.19-1.43-1.72-.91-3.37-2-3.36-2.87.07-7.86,1.42-21.68,5.68-24.23C322.24,280.79,300.32,263.29,300.32,263.29Z" transform="translate(-44.44 -49.42)"/><path class="cls-8" d="M289,300.27a20.86,20.86,0,0,1-4.64-.18,34.91,34.91,0,0,0,10.32,9.32c12.71,8.06,18.83,3.67,20.77,1.6a14.32,14.32,0,0,1-3.1-2h0c-11.87,5.8-23.35-8.75-23.35-8.75Z" transform="translate(-44.44 -49.42)"/><path class="cls-22" d="M316.5,311.53s5.07,51,4.45,55.34-8.68,25.54-15.74,44.43h12.15c2.4-4.62,4.23-8.23,4.57-9.1.21-.57,1.05-2.2,2.21-4.33,2.07-3.85,5.17-9.33,7.51-13.17,7.45-12.22,7.43-9.37,4.85-23.69-2.27-12.61-9.23-35.94-10.26-39.18C324.67,316.9,317.81,311.17,316.5,311.53Z" transform="translate(-44.44 -49.42)"/><path class="cls-15" d="M315.78,382.55c-1.67,4.67-3.61,10-5.62,15.44a40.81,40.81,0,0,1,7.69,1.1c3.69,1.45,4.08,3.11,4.08,3.11.21-.57,1.05-2.2,2.21-4.33,2.07-3.85,5.17-9.33,7.51-13.17,2.24-3.67,3.8-6,4.83-7.81-1.44,1.25-3.72,3.15-4.83,3.49C330.3,380.79,320,382.05,315.78,382.55Z" transform="translate(-44.44 -49.42)"/><path class="cls-22" d="M282.41,299s9.3,45.07,10.58,58.17-2.83,22.48-7.44,32.32c-1.55,3.32-6.53,11.78-12.67,21.81H244.24l3.06-70.79-8.21-1.91c.49-3.55.89-6.5,1.16-8.56l16.17-28.6S262.52,296.5,282.41,299Z" transform="translate(-44.44 -49.42)"/><path class="cls-15" d="M265,320.69c-4.57,18.35-1.39,26-1.39,26L266,335.24s2.32,16.85,4.9,19c1.27,1.07,16.5,4,22.21,5.05a47.82,47.82,0,0,1-2.81,18.88c-4.09.43-28.73-3.05-29.91,4.91-.59,4-.45-8.8-.45-8.8l-1.46,37H244.24l3.06-70.79-8.21-1.91,0-.16,0-.17,0-.16,0-.17h0l0-.16,0-.16,0-.16,0-.16,0-.16,0-.16,0-.15h0l0-.16,0-.16,0-.15h0l0-.15,0-.16h0l0-.15h0l0-.15h0l0-.15h0l0-.14h0l0-.15h0l0-.15h0l0-.14h0l0-.15h0l0-.14h0l0-.14h0l0-.14h0v-.14h0l0-.14h0l0-.14h0l0-.13h0l0-.14h0l0-.13h0v-.14h0l0-.13h0l0-.13h0l0-.13h0l0-.13h0v-.13h0l0-.12h0l0-.13h0v-.12h0l0-.13h0l0-.12h0v-.12h0l0-.12h0v-.12h0l0-.11h0l0-.12h0v-.11h0l0-.12h0v-.11h0l0-.11h0v-.11h0l0-.11h0v-.11h0v-.1h0l0-.11h0v-.1h0l0-.1h0v-.1h0v-.1h0l0-.09h0V330L249,314.55Z" transform="translate(-44.44 -49.42)"/><path class="cls-24" d="M242.34,321.44c-5.24,14.33-6.67,63.48-2.35,89.86h23c-9.41-52.37,10.36-89.83,6-103.1C262.06,287,245.79,312,242.34,321.44Z" transform="translate(-44.44 -49.42)"/><path class="cls-16" d="M334.37,273l2.57-1.12a74.85,74.85,0,0,0,7.46-11.44c-.61,1.16-4.65,8.23-10.57,3.91-6.43-4.7-6.69,2.74-6.69,2.74s3.89,4.42,6.15,5.45c.29.14.66.29,1.08.46Zm10.1-12.71h0Z" transform="translate(-44.44 -49.42)"/><path class="cls-9" d="M331.64,268.73a7.33,7.33,0,1,0,6.54,8A7.33,7.33,0,0,0,331.64,268.73Z" transform="translate(-44.44 -49.42)"/><path class="cls-9" d="M280.55,263.52l-.54.05h0a7.33,7.33,0,1,0,6,2c0,2.18-.56,4.82-3.34,4.85l.44-4.2A2.53,2.53,0,0,0,280.55,263.52Z" transform="translate(-44.44 -49.42)"/><path class="cls-13" d="M312.14,229.42h0a25.19,25.19,0,0,0-27.57,22.4l-2.36,22.71a25.2,25.2,0,0,0,22.4,27.58h0a25.2,25.2,0,0,0,27.58-22.4L334.54,257A25.18,25.18,0,0,0,312.14,229.42Z" transform="translate(-44.44 -49.42)"/><path class="cls-14" d="M284.15,255.8l-1.94,18.73a25.22,25.22,0,0,0,16,26.05c-14.63-6.06-7.13-31.47-7.13-31.47,3-.51,7.63-6,10.35-9.24s4.81-6.45,9.5-6.36,14.58,2.56,14.58,2.56a27.67,27.67,0,0,0,8.05,10.2l1-9.27a24.93,24.93,0,0,0-.47-8.07l-1.89-1.08C312.06,236.53,295,245.69,284.15,255.8Z" transform="translate(-44.44 -49.42)"/><path class="cls-16" d="M330.8,249.89l-4.06,1.73a12,12,0,0,0-8.19-1.32s-8.92-3.28-13.65-1.45-1.95-4.74-1.08-5,9.82-.86,13.73-.1,9.78,1.66,9.78,1.66Z" transform="translate(-44.44 -49.42)"/><path class="cls-16" d="M283.29,262.31l2.41.42s1.67,7.61-3.06,7.67l.44-4.2a2.36,2.36,0,0,0-.05-.81Z" transform="translate(-44.44 -49.42)"/><path class="cls-15" d="M318.55,250.3c-3.67-5-9.68-6-14.34,1-4.26,6.36-10.59,17.36-21.25,16.46l0-.2h0l.59-7.1-2,.49a45.65,45.65,0,0,1-.37-12.72c1.23-8.92,13.65-21.95,27.65-22.46S333,233.59,335,238.33s4,15.5,4,15.5l-2.47,3.52-2.65,7c-6.44-6.26-5.78-12.19-8.58-15.17C323.74,247.56,321.47,247.56,318.55,250.3Z" transform="translate(-44.44 -49.42)"/><path class="cls-16" d="M302.75,253.49c-4.22,6.39-10.29,15.06-19.79,14.26l0-.2h0l.59-7.1-2,.49c-.09-.61-.18-1.26-.27-1.92C292,262.15,302.72,253.52,302.75,253.49Z" transform="translate(-44.44 -49.42)"/><path class="cls-44" d="M313.79,310.11s6.54,53.63,6.41,55.37-1.86,10.13-1.86,10.13,3.15-5.29,3.93-9.68,2.83-34.05,2.83-34.05L321.62,330l3.23-.19-5.33-16.66a4.8,4.8,0,0,0-1.44-1.73c-.84-.48-3.9-2-3.95-2a2.06,2.06,0,0,0-1.19.15Z" transform="translate(-44.44 -49.42)"/><path class="cls-44" d="M282.41,299s9.3,45.07,10.58,58.17a46.53,46.53,0,0,1-.81,14.52c1.71-13.4-17.15-44.93-17.15-44.93l4.91-2.32-6.58-3s3-17,3.22-19.8-1.27-3.27-1.35-3.3C277.39,298.47,279.78,298.67,282.41,299Z" transform="translate(-44.44 -49.42)"/><path class="cls-25" d="M96.28,431.21h8.15a5.93,5.93,0,0,0,5.9-5.91h0a5.92,5.92,0,0,0-5.9-5.9H82.91a4.7,4.7,0,0,1-4.68-4.68h0A4.7,4.7,0,0,1,82.91,410H651.33a4.7,4.7,0,0,1,4.68,4.69h0a4.7,4.7,0,0,1-4.68,4.68H621.82a5.92,5.92,0,0,0-5.9,5.9h0a5.92,5.92,0,0,0,5.9,5.91h6.92a9.39,9.39,0,0,1,9.36,9.37h0a9.39,9.39,0,0,1-9.36,9.36H96.28a9.39,9.39,0,0,1-9.37-9.36h0a9.4,9.4,0,0,1,9.37-9.37ZM70.25,410a4.69,4.69,0,1,1-4.68,4.69A4.69,4.69,0,0,1,70.25,410Z" transform="translate(-44.44 -49.42)"/><path class="cls-45" d="M387.23,164.48h-42.7A7.56,7.56,0,0,0,337,172v37.2a1.57,1.57,0,0,0,.28.9,1.53,1.53,0,0,0,.73.59h0a1.59,1.59,0,0,0,.93.1,1.55,1.55,0,0,0,.83-.45l11.08-11.08h36.39a7.55,7.55,0,0,0,7.53-7.53V172a7.55,7.55,0,0,0-7.53-7.53Zm-42.7,1.76h42.7A5.77,5.77,0,0,1,393,172v19.73a5.77,5.77,0,0,1-5.77,5.77H350.12l-11.37,11.37V172a5.79,5.79,0,0,1,5.78-5.77Z" transform="translate(-44.44 -49.42)"/><path class="cls-45" d="M387.58,171.83a.47.47,0,0,0,.48-.48.48.48,0,0,0-.48-.48H344.17a.49.49,0,0,0-.48.48.48.48,0,0,0,.48.48Z" transform="translate(-44.44 -49.42)"/><path class="cls-45" d="M387.58,176.53a.49.49,0,0,0,0-1H383a.49.49,0,1,0,0,1Zm-10.72,0a.49.49,0,0,0,0-1H344.17a.49.49,0,0,0,0,1Z" transform="translate(-44.44 -49.42)"/><path class="cls-45" d="M387.58,181.22a.49.49,0,0,0,0-1H344.17a.49.49,0,0,0,0,1Z" transform="translate(-44.44 -49.42)"/><path class="cls-45" d="M375.51,187.58a.48.48,0,0,0,.48-.48.47.47,0,0,0-.48-.48H344.17a.48.48,0,0,0-.48.48.49.49,0,0,0,.48.48Z" transform="translate(-44.44 -49.42)"/><path class="cls-45" d="M361.52,192.67a.49.49,0,0,0,0-1H344.17a.49.49,0,0,0,0,1Z" transform="translate(-44.44 -49.42)"/><path class="cls-45" d="M371.46,192.67a.49.49,0,0,0,0-1h-6.2a.49.49,0,1,0,0,1Z" transform="translate(-44.44 -49.42)"/></svg>