<svg width="120" height="120" viewBox="0 0 120 120" fill="none" xmlns="http://www.w3.org/2000/svg">
<circle cx="60" cy="60" r="59" stroke="#D20000" stroke-opacity="0.3" stroke-width="2"/>
<path d="M84.7561 27H55.0775C52.8919 27.0022 50.7963 27.8723 49.251 29.4191C47.7052 30.9655 46.8358 33.0627 46.8337 35.2499V49.316C42.2886 47.6907 37.2378 48.3785 33.2929 51.1601C29.3473 53.9423 27 58.4703 27 63.2998C27 68.1299 29.3473 72.6579 33.2929 75.4396C37.2378 78.2212 42.2886 78.9095 46.8337 77.2837V84.7501C46.8359 86.9374 47.7054 89.0345 49.251 90.5809C50.7963 92.1278 52.8919 92.9979 55.0775 93H84.7561C86.9417 92.9978 89.0373 92.1277 90.5826 90.5809C92.1284 89.0345 92.9979 86.9374 93 84.7501V35.2499C92.9978 33.0627 92.1283 30.9655 90.5826 29.4191C89.0373 27.8722 86.9417 27.0021 84.7561 27ZM30.3453 63.2993C30.3453 60.2365 31.5615 57.2984 33.7256 55.1323C35.8902 52.9662 38.8261 51.7496 41.8872 51.7496C44.9478 51.7496 47.8837 52.9661 50.0483 55.1323C52.2128 57.2984 53.4285 60.2365 53.4285 63.2993C53.4285 66.3626 52.2129 69.3007 50.0483 71.4668C47.8837 73.6324 44.9478 74.8495 41.8872 74.8495C38.8272 74.8462 35.8935 73.628 33.7294 71.463C31.5658 69.2974 30.3486 66.3616 30.3453 63.2993ZM89.7026 84.7499C89.7026 86.0625 89.1814 87.3216 88.254 88.2502C87.326 89.1784 86.0678 89.6999 84.7561 89.6999H55.0775C53.7658 89.6999 52.5076 89.1784 51.5797 88.2502C50.6522 87.3216 50.1311 86.0625 50.1311 84.7499H81.459C82.3693 84.7499 83.1074 84.0112 83.1074 83.0997C83.1074 82.1887 82.3693 81.45 81.459 81.45H50.1311V75.6387C54.2516 72.8869 56.7265 68.2574 56.7265 63.2995C56.7265 58.3423 54.2516 53.7128 50.1311 50.961V35.2496C50.1311 33.9369 50.6522 32.6778 51.5797 31.7492C52.5077 30.8211 53.7659 30.2995 55.0775 30.2995H84.7561C86.0678 30.2995 87.326 30.8211 88.254 31.7492C89.1814 32.6779 89.7026 33.937 89.7026 35.2496V84.7499Z" fill="#D20000"/>
<path d="M46.2733 58.6384L40.9746 64.1847L38.8939 62.007C38.2625 61.3687 37.2593 61.3777 36.6382 62.0273C36.0175 62.6769 36.0089 63.7274 36.6188 64.3882L39.8368 67.7562C40.4655 68.4137 41.4837 68.4137 42.1125 67.7562L48.5491 61.0196L48.5485 61.0201C49.1584 60.3593 49.1498 59.3088 48.5291 58.6593C47.9085 58.0097 46.9047 58.0007 46.2733 58.6384Z" fill="#D20000"/>
<path d="M80.8571 44.8723H60.5086L59.9867 41.2634C59.8685 40.4413 59.1934 39.834 58.3991 39.834H54.2719C53.3856 39.834 52.667 40.5858 52.667 41.5136C52.667 42.4409 53.3856 43.1927 54.2719 43.1927H57.0183L60.5323 67.4587C60.6624 68.3792 61.0359 69.244 61.611 69.9543C62.1861 70.665 62.9396 71.193 63.7862 71.4793C62.8692 72.397 62.3355 73.6566 62.3011 74.9842C62.2667 76.3119 62.7349 77.5996 63.6034 78.5679C64.472 79.5363 65.671 80.1065 66.9395 80.1553C68.2079 80.2036 69.443 79.7262 70.3771 78.8265C71.3107 77.9274 71.8675 76.6785 71.9255 75.352C71.9841 74.0255 71.5396 72.7281 70.6888 71.7431H76.4037C75.5599 72.7153 75.1127 73.9935 75.1568 75.3059C75.2008 76.6183 75.7329 77.8605 76.6396 78.7687C77.5463 79.6768 78.7562 80.1784 80.0111 80.1671C81.2661 80.1559 82.4674 79.6324 83.359 78.7079C84.2507 77.784 84.7618 76.5323 84.7843 75.2194C84.8069 73.9064 84.3388 72.6361 83.4794 71.679C84.2238 71.5328 84.765 70.8558 84.7714 70.0634C84.7714 69.6181 84.6021 69.1907 84.3011 68.8758C84.0002 68.5609 83.5917 68.3838 83.166 68.3838H65.2887C64.4938 68.3883 63.8172 67.7793 63.7027 66.9566L63.4216 65.0251H78.9282C80.0402 65.0223 81.1173 64.6174 81.9772 63.8791C82.8372 63.1413 83.4273 62.1151 83.6472 60.9741L85.5734 50.8975C85.8562 49.4181 85.4907 47.8846 84.577 46.7172C83.6633 45.5504 82.2976 44.8734 80.8561 44.8718L80.8571 44.8723ZM67.1145 76.7822C66.4653 76.7822 65.88 76.3728 65.6312 75.7453C65.3829 75.1177 65.5204 74.3951 65.9794 73.9149C66.4384 73.4347 67.1291 73.2907 67.7289 73.5511C68.3287 73.8109 68.7195 74.4232 68.7195 75.1025C68.7195 75.5478 68.5507 75.9752 68.2497 76.2901C67.9482 76.605 67.5402 76.7822 67.1145 76.7822ZM79.9563 76.7822C79.307 76.7822 78.7217 76.3728 78.4734 75.7453C78.2246 75.1177 78.3622 74.3951 78.8212 73.9149C79.2802 73.4347 79.9708 73.2907 80.5707 73.5511C81.1705 73.8109 81.5617 74.4232 81.5617 75.1025C81.5617 75.5478 81.3924 75.9752 81.0914 76.2901C80.7905 76.605 80.3819 76.7822 79.9563 76.7822ZM82.096 48.8462C82.4012 49.2353 82.5238 49.7471 82.4297 50.2402L81.8503 53.27H73.5351V48.2316H80.8571C81.3376 48.2311 81.7928 48.4565 82.096 48.8462ZM70.3248 48.2316V53.2699H61.7237L60.9949 48.2316H70.3248ZM62.2086 56.6286L70.3248 56.6292V61.6675H62.9406L62.2086 56.6286ZM78.9287 61.6675H73.5347V56.6292H81.2077L80.503 60.3242V60.3236C80.3504 61.1064 79.6919 61.6681 78.9287 61.6675Z" fill="#D20000"/>
<path d="M67.027 37.0827H73.1382H73.1377C73.9818 37.0827 74.6657 36.2615 74.6657 35.2493C74.6657 34.2372 73.9818 33.416 73.1377 33.416H67.027C66.1829 33.416 65.499 34.2372 65.499 35.2493C65.499 36.2615 66.1829 37.0827 67.027 37.0827Z" fill="#D20000"/>
</svg>
