<svg width="120" height="120" viewBox="0 0 120 120" fill="none" xmlns="http://www.w3.org/2000/svg">
<circle cx="60" cy="60" r="59" stroke="#D20000" stroke-opacity="0.3" stroke-width="2"/>
<path d="M86.3752 38.7497H80.2251V35.6747C80.2251 35.4029 80.1171 35.142 79.9249 34.9498C79.7327 34.7577 79.4719 34.6497 79.2001 34.6497H77.3368L61.11 28.5642C60.8784 28.4786 60.624 28.4786 60.3925 28.5642L43.9923 34.7142C43.5914 34.8638 43.3256 35.2469 43.3256 35.6747C43.3256 36.1025 43.5914 36.4856 43.9923 36.6352L45.3752 37.1536V38.7497H35.1251C33.7664 38.7515 32.4637 39.292 31.5027 40.2524C30.5422 41.2134 30.0019 42.5161 30 43.8747V72.5749C30.0018 73.9335 30.5422 75.2363 31.5027 76.1972C32.4637 77.1577 33.7664 77.6981 35.1251 77.6999H55.3371L53.7996 83.85H52.5499C51.4512 83.85 50.4363 84.4361 49.8867 85.3875C49.3376 86.3388 49.3376 87.5112 49.8867 88.4625C50.4363 89.4138 51.4512 90 52.5499 90H68.9501C70.0488 90 71.0637 89.4138 71.6132 88.4625C72.1624 87.5112 72.1624 86.3388 71.6132 85.3875C71.0637 84.4361 70.0488 83.85 68.9501 83.85H67.7004L66.1629 77.6999H86.3749C87.7336 77.6981 89.0363 77.1577 89.9973 76.1972C90.9578 75.2363 91.4981 73.9335 91.5 72.5749V43.8747C91.4982 42.5161 90.9577 41.2134 89.9973 40.2524C89.0363 39.2919 87.7336 38.7516 86.3749 38.7497L86.3752 38.7497ZM76.1251 37.1536L77.3368 36.6997H78.1751V38.7497H76.1251L76.1251 37.1536ZM60.7499 30.6192L71.4969 34.6497H60.7499V36.6997H71.4969L60.7499 40.7301L47.4247 35.7332V35.6747H47.2692L60.7499 30.6192ZM60.3902 42.7858C60.6218 42.8713 60.8762 42.8713 61.1077 42.7858L74.0756 37.9229V44.272C70.9278 45.955 66.0087 46.9502 60.7504 46.9502C55.4922 46.9502 50.5731 45.9549 47.4253 44.272V37.9229L60.3902 42.7858ZM35.1246 40.8003H45.3747V44.8696C45.3747 45.2307 45.5646 45.5652 45.8748 45.75C49.2893 47.7845 54.851 49.0003 60.7498 49.0003C66.6486 49.0003 72.2102 47.7845 75.6248 45.75C75.935 45.5652 76.1249 45.2307 76.1249 44.8696V40.8003H78.1749V44.0638C77.4011 44.3347 76.7678 44.9044 76.4178 45.6457C76.0677 46.3874 76.0302 47.2381 76.313 48.0078C76.5958 48.7774 77.176 49.4012 77.9228 49.7393L76.1647 55.8893C76.075 56.1991 76.1358 56.5331 76.3299 56.7912C76.5234 57.0488 76.8273 57.2003 77.1499 57.2003H81.2499C81.5716 57.2003 81.8745 57.0493 82.0681 56.7921C82.2617 56.5354 82.3234 56.2028 82.2351 55.8934L80.477 49.7434C81.2257 49.4061 81.8072 48.782 82.0914 48.0114C82.3751 47.2408 82.3371 46.3884 81.9861 45.6462C81.6352 44.9035 81.0005 44.3333 80.2249 44.0638V40.8003H86.375C87.1904 40.8003 87.9729 41.1243 88.5494 41.7008C89.1259 42.2774 89.4499 43.0599 89.4499 43.8753V67.4504H32.0493V43.8753C32.0493 43.0598 32.3733 42.2773 32.9498 41.7008C33.5264 41.1244 34.3089 40.8003 35.1243 40.8003L35.1246 40.8003ZM79.2001 45.9253C79.6146 45.9253 79.9885 46.1752 80.1468 46.5582C80.3056 46.9412 80.2182 47.3818 79.9249 47.6751C79.6316 47.9685 79.1909 48.0559 78.8079 47.8971C78.4249 47.7387 78.175 47.3649 78.175 46.9503C78.175 46.3843 78.634 45.9253 79.2001 45.9253ZM79.2001 52.7316L79.891 55.1504H78.5091L79.2001 52.7316ZM69.9749 86.9258C69.9749 87.1976 69.867 87.4584 69.6748 87.6506C69.4826 87.8428 69.2217 87.9508 68.9499 87.9508H52.5498C51.9837 87.9508 51.5247 87.4918 51.5247 86.9258C51.5247 86.3597 51.9837 85.9008 52.5498 85.9008H68.9499C69.2217 85.9008 69.4826 86.0088 69.6748 86.201C69.867 86.3931 69.9749 86.654 69.9749 86.9258ZM65.5871 83.8508H55.9126L57.4501 77.7007H64.0491L65.5871 83.8508ZM86.3755 75.6507H35.1249C34.3095 75.6507 33.5269 75.3267 32.9505 74.7502C32.374 74.1736 32.0499 73.3911 32.0499 72.5758V69.5007H89.4506V72.5758C89.4506 73.3912 89.1266 74.1737 88.55 74.7502C87.9735 75.3266 87.1909 75.6507 86.3756 75.6507H86.3755Z" fill="#D20000"/>
<path d="M83.1475 71.7773H85.4252V74.0551H83.1475V71.7773Z" fill="#D20000"/>
<path d="M37.1278 65.7042H54.0002C54.2798 65.7042 54.5482 65.5957 54.7459 65.4025C54.9436 65.2093 55.0547 64.9471 55.0547 64.6738V52.3087C55.0547 52.0355 54.9436 51.7733 54.7459 51.5801C54.5482 51.3869 54.2798 51.2783 54.0002 51.2783H37.1278C36.5454 51.2783 36.0732 51.7397 36.0732 52.3087V64.6738C36.0732 64.9471 36.1843 65.2093 36.3821 65.4025C36.5798 65.5957 36.8481 65.7042 37.1278 65.7042ZM38.1823 53.3392H52.9457V63.6434H38.1823V53.3392Z" fill="#D20000"/>
<path d="M58.8516 51.2783H61.1293V53.5561H58.8516V51.2783Z" fill="#D20000"/>
<path d="M62.6484 51.2783H71.0003V53.5561H62.6484V51.2783Z" fill="#D20000"/>
<path d="M58.8516 55.834H70.9997V58.1118H58.8516V55.834Z" fill="#D20000"/>
<path d="M58.8516 59.6289H70.9997V61.9067H58.8516V59.6289Z" fill="#D20000"/>
<path d="M58.8516 63.4258H64.9256V65.7036H58.8516V63.4258Z" fill="#D20000"/>
</svg>
