<svg width="120" height="120" viewBox="0 0 120 120" fill="none" xmlns="http://www.w3.org/2000/svg">
<circle cx="60" cy="60" r="59" stroke="#D20000" stroke-opacity="0.3" stroke-width="2"/>
<path d="M51.4794 70.3152C51.4794 71.2718 50.7109 72.0469 49.7636 72.0469H47.6414V74.1884C47.6414 75.145 46.8729 75.9202 45.9256 75.9202C44.9778 75.9202 44.2098 75.145 44.2098 74.1884V72.0469H42.0885C41.1407 72.0469 40.3727 71.2718 40.3727 70.3152C40.3727 69.3586 41.1407 68.5834 42.0885 68.5834H44.2098V66.4414C44.2098 65.4848 44.9778 64.7097 45.9256 64.7097C46.8729 64.7097 47.6414 65.4848 47.6414 66.4414V68.5834H49.7636C50.7109 68.5834 51.4794 69.3586 51.4794 70.3152ZM81.131 70.3152C81.1304 71.8017 80.5452 73.2277 79.5041 74.2786C78.4623 75.3301 77.0494 75.9202 75.5766 75.9202C74.1033 75.9202 72.6909 75.3295 71.6492 74.2781C70.608 73.2272 70.0228 71.8011 70.0228 70.3147C70.0228 68.8276 70.608 67.4021 71.6497 66.3507C72.6909 65.2998 74.1038 64.7091 75.5766 64.7091C77.0494 64.7107 78.4612 65.3019 79.5025 66.3528C80.5437 67.4037 81.1294 68.8288 81.131 70.3152ZM77.6994 70.3152C77.6994 69.7472 77.4757 69.2019 77.0774 68.8005C76.6796 68.3984 76.1398 68.1732 75.5766 68.1732C75.0139 68.1732 74.4741 68.3984 74.0759 68.8005C73.6781 69.202 73.4544 69.7473 73.4544 70.3152C73.4544 70.8832 73.6781 71.4279 74.0759 71.8299C74.4742 72.2314 75.014 72.4571 75.5766 72.4571C76.1394 72.4566 76.6791 72.2309 77.077 71.8294C77.4748 71.4274 77.699 70.8831 77.6995 70.3151L77.6994 70.3152ZM89.1109 91.6426C85.0405 93.6304 80.2531 93.4243 76.365 91.0942L67.8662 86.0149C65.7041 84.7501 63.2494 84.0841 60.7502 84.0841C58.2516 84.0841 55.7968 84.7501 53.6347 86.0149L45.1359 91.0942C41.2483 93.4238 36.4615 93.63 32.3915 91.6426C30.039 90.5097 28.1949 88.5249 27.2257 86.0829C26.2565 83.6403 26.233 80.9195 27.1604 78.461L31.9534 65.5816H31.9528C33.0977 62.535 35.1311 59.9115 37.7845 58.0561C40.4378 56.2011 43.5865 55.2023 46.8143 55.192H59.0352V44.5505C59.0393 43.9459 58.8044 43.3651 58.3826 42.9363C57.9608 42.5075 57.3868 42.2663 56.7884 42.2663C56.1894 42.2663 55.6154 42.5075 55.1936 42.9363C54.7718 43.3651 54.5369 43.946 54.5415 44.5505V46.6286C54.5415 48.5892 53.5049 50.4014 51.8223 51.3816C50.1402 52.3619 48.0669 52.3619 46.3848 51.3816C44.7022 50.4013 43.6655 48.5892 43.6655 46.6286V28.7318C43.6655 27.7757 44.4341 27 45.3813 27C46.3291 27 47.0971 27.7757 47.0971 28.7318V46.6286C47.0971 47.3517 47.4796 48.0202 48.1006 48.382C48.721 48.7438 49.486 48.7438 50.1064 48.382C50.7274 48.0202 51.1099 47.3517 51.1099 46.6286V44.5505C51.1027 43.0259 51.6981 41.5617 52.7638 40.4808C53.8296 39.4005 55.2777 38.7934 56.7883 38.7934C58.2988 38.7934 59.747 39.4006 60.8127 40.4808C61.8784 41.5616 62.4733 43.0259 62.4667 44.5505V55.1926H74.687C77.9148 55.2029 81.0635 56.2017 83.7169 58.0567C86.3703 59.9117 88.4037 62.5355 89.5485 65.5816L94.3415 78.461H94.341C95.2683 80.92 95.2448 83.6408 94.2756 86.0829C93.3069 88.5249 91.4629 90.5097 89.1103 91.6426H89.1109ZM91.1295 79.6784L86.3365 66.799V66.7995C85.4393 64.4116 83.8455 62.3551 81.7656 60.9012C79.6863 59.4472 77.2183 58.6644 74.6879 58.6556H46.8156C44.2854 58.6643 41.8179 59.4472 39.7379 60.9012C37.658 62.3553 36.0642 64.4116 35.1665 66.799L30.3735 79.6784H30.374C29.7515 81.3283 29.7674 83.1538 30.4179 84.7928C31.0685 86.4313 32.3058 87.7631 33.8848 88.5229C36.9202 90.0051 40.4896 89.8516 43.3886 88.1142L51.8874 83.0349H51.8879C54.5811 81.4593 57.6394 80.6295 60.7528 80.6295C63.8657 80.6295 66.924 81.4593 69.6177 83.0349L78.1165 88.1142C81.0155 89.8516 84.5849 90.0052 87.6202 88.5229C89.1986 87.7627 90.4365 86.4313 91.0866 84.7924C91.7366 83.154 91.7525 81.3284 91.13 79.6786L91.1295 79.6784Z" fill="#D20000"/>
</svg>
