<svg width="120" height="120" viewBox="0 0 120 120" fill="none" xmlns="http://www.w3.org/2000/svg">
<rect width="120" height="120" fill="#F5F5F5"/>
<g id="Home" clip-path="url(#clip0_0_1)">
<rect width="1920" height="12800" transform="translate(-200 -9115)" fill="white"/>
<g id="Group 39808">
<path id="Rectangle 5297" d="M-200 400L-200 -280L837 -280L837 -200C837 131.371 568.371 400 237 400L-200 400Z" fill="#FEE8EB"/>
<g id="Group 39777">
<g id="Group 39775">
<g id="Group 39771">
<g id="Group 39755">
<circle id="Ellipse 4" cx="60" cy="60" r="59" stroke="#D20000" stroke-opacity="0.3" stroke-width="2"/>
<g id="Group 39731">
<path id="Vector" d="M66.1437 89.6442C66.0595 90.1545 65.6136 90.5287 65.0914 90.5287C64.5692 90.5287 64.1234 90.1545 64.0392 89.6442V75.4371C64.0319 74.3095 64.3221 73.1994 64.881 72.2167C65.4399 71.2218 66.2371 70.3779 67.2032 69.7597H67.2664L75.7773 64.2836C76.6455 63.7172 77.7061 63.5172 78.7241 63.7283C79.6735 63.9408 80.5148 64.4826 81.0953 65.2552L83.4176 63.7908L83.418 53.5188C83.422 52.4595 83.8482 51.4443 84.6034 50.6939C85.3585 49.9425 86.3814 49.5136 87.4522 49.5C88.526 49.5015 89.5567 49.9202 90.3216 50.6658C91.0748 51.4177 91.4981 52.4324 91.5006 53.4907V68.434C91.4967 68.7899 91.4497 69.1438 91.3601 69.489C91.2672 69.7979 91.1404 70.0956 90.9813 70.3774C90.9172 70.5202 90.8443 70.6591 90.7635 70.7937C90.6598 70.9409 90.5448 71.0799 90.42 71.2101C89.6727 71.8893 88.8431 72.4741 87.9504 72.9521C87.7752 73.0702 87.5716 73.1878 87.2486 73.3892L77.6434 79.3789V89.6441C77.6453 89.9239 77.5333 90.1926 77.3326 90.3901C77.1319 90.5871 76.8598 90.6961 76.577 90.6922H68.3117C67.7773 90.6312 67.374 90.1834 67.374 89.6513C67.374 89.1188 67.7773 88.6714 68.3117 88.6099H75.5174V78.8033C75.5145 78.446 75.6941 78.1119 75.9946 77.9149L86.1048 71.6686C86.2453 71.5713 86.5257 71.3912 86.8066 71.2174V71.2169C87.529 70.8354 88.203 70.3692 88.8133 69.8289C88.8764 69.7665 88.9185 69.7108 88.9748 69.6483L89.0379 69.5302L89.0942 69.4121L89.0937 69.4126C89.1798 69.261 89.2479 69.1003 89.2973 68.9338C89.3394 68.7706 89.358 68.6021 89.3536 68.4341V53.5193C89.3575 53.0158 89.1549 52.5327 88.7922 52.1797C88.4325 51.8209 87.9416 51.621 87.4312 51.6244C86.9256 51.6263 86.4416 51.8258 86.0838 52.1797C85.7163 52.5292 85.5132 53.0148 85.5225 53.5193V64.381C85.5205 64.7383 85.3321 65.0689 85.0247 65.2558L81.2152 67.6436L81.2147 67.6431C81.129 67.7007 81.0341 67.7429 80.9343 67.768C80.6621 67.8445 80.3709 67.8097 80.1258 67.6712C79.8801 67.5327 79.7014 67.3028 79.629 67.0326C79.5869 66.9561 79.5659 66.8729 79.5238 66.7969V66.7964C79.4925 66.716 79.4445 66.6429 79.3833 66.5814C79.1298 66.1849 78.7251 65.907 78.2611 65.8112C77.7937 65.7085 77.3043 65.7932 76.8996 66.0469L68.4171 71.4814C68.375 71.4814 68.354 71.523 68.3329 71.523C67.6688 71.9534 67.1197 72.5373 66.7335 73.2234C66.3405 73.8963 66.1369 74.6608 66.1437 75.4378L66.1437 89.6442Z" fill="#D20000"/>
<path id="Vector_2" d="M68.8594 71.6611C68.6319 71.8108 68.3544 71.8637 68.0873 71.8089C67.8208 71.7536 67.5871 71.5948 67.4374 71.3673C67.126 70.8933 67.2576 70.2568 67.7316 69.9454L75.9352 64.6611C76.7812 64.1047 77.8155 63.9101 78.8065 64.1213C79.7813 64.3416 80.632 64.9324 81.1785 65.7688L81.3493 66.0215V66.0625H81.3497C81.8052 66.8999 81.9258 67.8783 81.6874 68.8011C81.4485 69.7238 80.8686 70.521 80.0646 71.0326L79.8047 71.2377L73.7269 75.1754V75.175C73.2534 75.4882 72.6149 75.3585 72.3015 74.8846C71.9882 74.4106 72.1184 73.7726 72.592 73.4593L78.9291 69.3575H78.9296C79.3187 69.1128 79.5867 68.7161 79.6678 68.2636C79.7684 67.8149 79.6849 67.3447 79.4355 66.958C79.1847 66.5752 78.7908 66.3091 78.3416 66.2199C77.8862 66.1221 77.4103 66.2051 77.0155 66.4521L68.8594 71.6611Z" fill="#D20000"/>
<path id="Vector_3" d="M84.5078 64.9521C84.6313 65.2029 84.6495 65.4925 84.558 65.757C84.4665 66.0211 84.2731 66.238 84.0207 66.3592C83.4961 66.6041 82.8716 66.3891 82.6099 65.8738L78.9626 58.416C78.9286 58.3458 78.9001 58.2727 78.8779 58.1981C78.4971 57.2676 78.4774 56.2291 78.8218 55.2853C79.1323 54.3292 79.8129 53.5361 80.7124 53.0827L80.9172 52.9983C81.6912 52.7151 82.5292 52.6542 83.3367 52.8226C84.156 52.9404 84.9222 53.2976 85.5378 53.8498C85.7352 54.0466 85.8464 54.3136 85.8464 54.5918C85.8464 54.8706 85.7352 55.1376 85.5378 55.3344C85.1156 55.7447 84.443 55.7447 84.0208 55.3344C83.7275 55.0993 83.3722 54.9525 82.9982 54.9123C82.5824 54.824 82.1513 54.8387 81.7424 54.9545L81.6647 54.9967C81.2744 55.2058 80.9792 55.5557 80.8394 55.9743C80.6716 56.4288 80.6716 56.9274 80.8394 57.3819C80.8616 57.4123 80.8808 57.4457 80.896 57.48L84.5078 64.9521Z" fill="#D20000"/>
<path id="Vector_4" d="M76.1875 65.653L75.2093 64.8972V64.8968C74.3554 64.2681 73.8284 63.3577 73.7496 62.3771C73.6447 61.4005 73.9986 60.4283 74.7277 59.6892L74.7934 59.6117C75.5067 58.9024 76.5042 58.4666 77.5745 58.3972C78.686 58.3134 79.7894 58.6248 80.6403 59.2629L81.8084 60.1481L80.3924 61.6214L79.2024 60.7362C78.7941 60.4411 78.2722 60.2977 77.7467 60.3365C77.2207 60.3748 76.7329 60.5925 76.3847 60.9431L76.3409 60.9949V60.9945C76.041 61.3438 75.8979 61.7787 75.9397 62.2158C75.9768 62.6796 76.2243 63.1108 76.6255 63.411L77.6113 64.1541L76.1875 65.653Z" fill="#D20000"/>
<path id="Vector_5" d="M55.9596 89.6519C55.8754 90.1623 55.4296 90.5365 54.9074 90.5365C54.3853 90.5365 53.9394 90.1623 53.8553 89.6519V75.4422C53.8641 74.6655 53.6629 73.9008 53.2729 73.2273C52.8936 72.5359 52.3436 71.9504 51.6731 71.5267C51.6731 71.5267 51.631 71.5267 51.6099 71.4851L43.079 66.0288C42.6763 65.7789 42.1913 65.6951 41.7269 65.7949C41.2625 65.8946 40.8563 66.1706 40.5954 66.5634C40.5343 66.6249 40.4863 66.698 40.455 66.7784C40.4178 66.8534 40.3894 66.9328 40.3708 67.0147C40.2103 67.5701 39.6309 67.8974 39.0656 67.7502C38.959 67.7255 38.8572 67.6834 38.7642 67.6253L34.9544 65.2583C34.6539 65.0651 34.4675 64.7383 34.4567 64.3833V53.5197C34.466 53.0152 34.2629 52.5295 33.8954 52.1798L33.8533 52.1382C33.5009 51.8075 33.0336 51.6239 32.5481 51.6244C32.0377 51.621 31.5468 51.821 31.1872 52.1798C30.8246 52.5328 30.6219 53.0161 30.6259 53.5197V68.4373C30.6283 68.6063 30.6542 68.7748 30.7032 68.937C30.7531 69.1011 30.8211 69.2595 30.9068 69.4091L30.963 69.5273L30.9626 69.5268C30.9816 69.5718 31.0105 69.612 31.0467 69.6449V69.6866C31.0467 69.7282 31.124 69.7839 31.1661 69.8255C31.7764 70.3659 32.4503 70.8322 33.1726 71.2138L33.8744 71.6651L43.9629 77.9125C44.2688 78.1076 44.4557 78.4413 44.4611 78.801V88.6032H51.4768C51.7768 88.5688 52.0778 88.6627 52.3029 88.8618C52.5285 89.0608 52.6577 89.3455 52.6577 89.6443C52.6577 89.9435 52.5285 90.2282 52.3029 90.4268C52.0778 90.6258 51.7768 90.7197 51.4768 90.6853H43.4226C42.8364 90.6858 42.3602 90.2176 42.3563 89.6375V79.384L32.7518 73.4072L32.05 72.9699C31.1622 72.4847 30.3338 71.9003 29.5806 71.2277C29.4822 71.1027 29.377 70.9846 29.3001 70.8669L29.237 70.8112C29.1563 70.6766 29.0833 70.5376 29.0192 70.3943C28.8592 70.1154 28.7364 69.8166 28.6546 69.5057C28.5538 69.1629 28.502 68.808 28.5 68.4506V53.5195C28.5054 52.4755 28.9292 51.4769 29.6789 50.7425C30.4282 49.9643 31.4622 49.5164 32.5481 49.5C33.591 49.5029 34.5942 49.8975 35.3547 50.6035L35.4178 50.666C36.1812 51.4117 36.6084 52.43 36.6031 53.4915V63.7653L38.9462 65.23H38.9467C39.5232 64.4533 40.3664 63.9104 41.3177 63.7028C42.3356 63.4936 43.3957 63.6936 44.2644 64.2582L52.7673 69.7004H52.8304L52.8309 69.7009C53.7965 70.3192 54.5941 71.1632 55.153 72.1583C55.7099 73.163 55.9884 74.2956 55.9595 75.4418L55.9596 89.6519Z" fill="#D20000"/>
<path id="Vector_6" d="M52.2662 69.9425C52.7408 70.2552 52.8726 70.8944 52.5608 71.3703C52.249 71.8462 51.6115 71.9784 51.1369 71.6652L42.9699 66.3596C42.5746 66.1116 42.098 66.0278 41.642 66.126C41.1922 66.2155 40.7978 66.4827 40.5466 66.8677C40.2978 67.2598 40.2128 67.7348 40.3102 68.1891C40.4076 68.644 40.6793 69.0419 41.0671 69.2975L47.4128 73.4163V73.4158C47.6616 73.5541 47.842 73.7902 47.9108 74.0674C47.9796 74.3442 47.9309 74.6372 47.7757 74.8766C47.6205 75.116 47.3736 75.2802 47.0933 75.33C46.813 75.3798 46.5246 75.3104 46.2973 75.1385L40.1908 71.2401L39.9172 71.0687L39.9167 71.0682C39.1226 70.5453 38.551 69.7443 38.3133 68.8221C38.0755 67.9 38.1882 66.9218 38.6299 66.0781V66.0369L38.8008 65.7832L38.8013 65.7827C39.3557 64.9333 40.2209 64.3367 41.2108 64.1217C42.2031 63.9096 43.2384 64.1049 44.086 64.6642L52.2662 69.9425Z" fill="#D20000"/>
<path id="Vector_7" d="M38.2084 65.8609C37.9509 66.389 37.3128 66.6099 36.7826 66.3532C36.2524 66.097 36.0313 65.4604 36.2883 64.9319L39.9445 57.4735C39.9445 57.4313 39.9445 57.3891 39.9799 57.3749C40.1478 56.9208 40.1478 56.4217 39.9799 55.9677C39.8401 55.5486 39.5447 55.1986 39.1543 54.9895L39.0765 54.9473C38.6673 54.8315 38.236 54.8172 37.82 54.9051C37.4458 54.9458 37.0903 55.0926 36.7969 55.3277C36.3745 55.7375 35.7014 55.7375 35.279 55.3277C35.0761 55.1338 34.9609 54.8653 34.9609 54.5851C34.9609 54.3048 35.0761 54.0368 35.279 53.843C35.8851 53.2893 36.6458 52.9335 37.4601 52.8226C38.2681 52.6542 39.1065 52.7151 39.881 52.9983L40.0858 53.0827C40.9858 53.5362 41.6667 54.3294 41.9774 55.2854C42.3329 56.2278 42.3127 57.2703 41.9213 58.1985C41.8991 58.2731 41.8706 58.3462 41.8366 58.4164L38.2084 65.8609Z" fill="#D20000"/>
<path id="Vector_8" d="M42.4591 64.1577L43.4433 63.4232V63.4227C43.8329 63.1161 44.0663 62.6845 44.0923 62.2242C44.1421 61.7845 44.0012 61.3449 43.6986 60.9934L43.633 60.9354C43.2912 60.5802 42.8024 60.3622 42.277 60.3294C41.7501 60.2858 41.2252 60.4296 40.8183 60.729L39.6515 61.6119L38.1934 60.1423L39.382 59.2594C40.2161 58.6354 41.2934 58.3247 42.3834 58.3931C43.4734 58.4619 44.4896 58.9047 45.2154 59.6267L45.2591 59.704C45.9875 60.4444 46.3471 61.4133 46.2565 62.391C46.166 63.3688 45.633 64.2733 44.778 64.8987L43.8447 65.653L42.4591 64.1577Z" fill="#D20000"/>
<path id="Vector_9" d="M58.8371 55.1825C58.3397 55.6821 57.6708 55.9615 56.9737 55.9615C56.2769 55.9615 55.6076 55.682 55.1102 55.1825C54.6196 54.6741 54.3447 53.9884 54.3457 53.2742C54.3433 52.5772 54.6139 51.9078 55.0968 51.4151C55.6883 50.8114 56.3904 50.333 57.1636 50.0069C57.9228 49.6724 58.7406 49.5 59.5676 49.5C60.4052 49.4985 61.2341 49.6685 62.0063 50C62.778 50.3277 63.48 50.8056 64.073 51.4082C64.567 51.9048 64.8457 52.5837 64.8457 53.2919C64.8457 54.0001 64.567 54.679 64.073 55.1755C63.58 55.6756 62.914 55.9565 62.2197 55.957C61.5196 55.9545 60.8478 55.6746 60.3462 55.1755C60.2592 55.066 60.1448 54.9835 60.0156 54.9358C59.8854 54.8774 59.7441 54.8509 59.6023 54.8587C59.4649 54.8523 59.3279 54.8789 59.2025 54.9358C59.0737 54.9741 58.9589 55.0503 58.8719 55.1544L58.8371 55.1825ZM56.9636 53.8588C57.1096 53.8559 57.2495 53.7984 57.3562 53.6967C57.6421 53.3956 57.9837 53.1564 58.3619 52.9928C58.7449 52.8327 59.1538 52.7492 59.5675 52.7463C59.9794 52.7458 60.3868 52.8293 60.766 52.9928C61.1518 53.153 61.5012 53.3927 61.7924 53.6967C62.0115 53.9133 62.3589 53.9133 62.578 53.6967C62.6741 53.5857 62.7299 53.4438 62.7361 53.2954C62.7323 53.1466 62.6761 53.0041 62.578 52.8941C62.1768 52.4987 61.7107 52.179 61.1999 51.9506C60.68 51.7389 60.1269 51.6244 59.5675 51.6126C59.0135 51.6175 58.4652 51.7251 57.9486 51.9294C57.4412 52.1632 56.9751 52.482 56.571 52.873C56.4754 52.985 56.4196 53.126 56.4124 53.2743C56.4187 53.4226 56.4744 53.5646 56.571 53.6756C56.6777 53.7773 56.8175 53.8347 56.9636 53.8377L56.9636 53.8588Z" fill="#D20000"/>
<path id="Vector_10" d="M54.8144 50.3411C54.3167 50.837 53.6456 51.1145 52.9456 51.1145C52.246 51.1145 51.5744 50.837 51.0772 50.3411C50.5838 49.8385 50.3076 49.1595 50.3086 48.4527C50.3081 47.7522 50.5843 47.08 51.0772 46.5851C53.3386 44.3136 56.4029 43.0381 59.5971 43.0381C62.7917 43.0381 65.8555 44.3136 68.1174 46.5851C68.6098 47.0799 68.8865 47.7522 68.8855 48.4527C68.8865 49.1594 68.6103 49.8385 68.1174 50.3411C67.6187 50.837 66.9461 51.115 66.2452 51.115C65.5442 51.115 64.8717 50.837 64.373 50.3411C63.7545 49.7088 63.0154 49.2086 62.2 48.8713C60.5319 48.1835 58.6626 48.1835 56.995 48.8713C56.1781 49.2101 55.4371 49.7103 54.8147 50.3411H54.8144ZM53.3333 48.8499V48.8504C54.1589 48.0284 55.1341 47.3755 56.2059 46.9269C57.2762 46.4695 58.4272 46.2323 59.5903 46.2299C60.7576 46.2333 61.913 46.47 62.9886 46.9269C64.0604 47.3756 65.0356 48.0284 65.8607 48.8504C65.9544 48.9588 66.092 49.0176 66.2344 49.0103C66.3835 49.022 66.5298 48.9627 66.6293 48.8504C66.7427 48.7517 66.8021 48.6034 66.7881 48.4527C66.7949 48.3035 66.737 48.1587 66.6293 48.0556C65.7081 47.1262 64.6112 46.3917 63.4037 45.8955C62.1938 45.3938 60.8985 45.1357 59.5902 45.1357C58.2872 45.142 56.9972 45.3997 55.7902 45.8955C54.5905 46.4034 53.5012 47.1447 52.5859 48.0765C52.4753 48.1689 52.4159 48.3089 52.4266 48.4527C52.4159 48.6029 52.4748 48.7497 52.5859 48.8504C52.6791 48.9588 52.8171 49.0176 52.9596 49.0103C53.1078 49.0152 53.2507 48.9573 53.354 48.8504L53.3333 48.8499Z" fill="#D20000"/>
<path id="Vector_11" d="M50.8349 44.6861C50.3361 45.1836 49.6576 45.4623 48.9513 45.4599C48.2411 45.4608 47.5591 45.1827 47.0535 44.6861C46.5509 44.1886 46.2686 43.5121 46.2686 42.8069C46.2686 42.1017 46.5509 41.4251 47.0535 40.9276C50.3836 37.6229 54.8937 35.7676 59.5963 35.7676C64.298 35.7676 68.8082 37.6229 72.1378 40.9276L72.2219 41.0045L72.4387 41.2486V41.3045H72.4392C72.7568 41.7451 72.9258 42.2748 72.9223 42.817C72.9238 43.5197 72.641 44.1934 72.1378 44.686C71.6323 45.1826 70.9503 45.4608 70.24 45.4598C69.6973 45.4569 69.1668 45.2969 68.7135 44.9997H68.6574L68.3423 44.686C66.0181 42.3799 62.8702 41.0851 59.5886 41.0851C56.3075 41.0851 53.1596 42.3798 50.8349 44.6861ZM48.944 43.375C49.0978 43.3691 49.2434 43.3044 49.3504 43.1941C50.6952 41.8615 52.2862 40.8007 54.0355 40.0703C57.5946 38.6204 61.583 38.6204 65.1421 40.0703C66.7604 40.7361 68.2421 41.6937 69.5116 42.894L69.813 43.1941C69.9195 43.3045 70.0651 43.3692 70.2189 43.375C70.3718 43.373 70.5164 43.3074 70.618 43.1941C70.7191 43.0939 70.7768 42.9592 70.7792 42.8172C70.7807 42.6688 70.7231 42.5259 70.618 42.4198L70.4432 42.1971C67.5288 39.4195 63.6508 37.8686 59.6169 37.8672C57.5612 37.8663 55.5263 38.2719 53.629 39.0593C51.7371 39.8316 50.0201 40.9745 48.58 42.4198C48.4754 42.5259 48.4173 42.6688 48.4188 42.8172C48.4212 42.9592 48.4789 43.0939 48.58 43.1941C48.6806 43.3089 48.8262 43.3745 48.9791 43.375L48.944 43.375Z" fill="#D20000"/>
<path id="Vector_12" d="M46.8597 39.8099C46.3568 40.319 45.6666 40.6064 44.9463 40.6064C44.2254 40.6064 43.5353 40.319 43.0324 39.8099C42.5227 39.3179 42.2339 38.6449 42.2315 37.9416C42.23 37.2305 42.5157 36.5482 43.0255 36.0454C47.4293 31.729 53.3841 29.3066 59.5899 29.3066C65.7957 29.3066 71.7501 31.729 76.1543 36.0454L76.3175 36.2275V36.227C76.7274 36.7077 76.9553 37.3134 76.9622 37.9416C76.9637 38.6464 76.6774 39.3224 76.1687 39.8168C75.6648 40.3297 74.9712 40.6177 74.2478 40.6143C73.5279 40.6187 72.8382 40.3302 72.3409 39.8168C68.9541 36.4984 64.3757 34.6364 59.604 34.6364C54.8319 34.6364 50.2535 36.4984 46.8671 39.8168L46.8597 39.8099ZM44.9533 38.4946V38.4941C45.0793 38.4931 45.201 38.4517 45.3003 38.3755L45.3429 38.3335H45.3434C47.2162 36.4867 49.4391 35.0225 51.8856 34.0234C56.8239 32.0082 62.3703 32.0082 67.3096 34.0234C69.7555 35.0225 71.9784 36.4867 73.8518 38.3335L73.8943 38.3755C73.9932 38.4526 74.1153 38.4941 74.2414 38.4941C74.3927 38.4961 74.5381 38.438 74.6459 38.3335C74.8634 38.111 74.8634 37.7581 74.6459 37.5355V37.4936C72.0027 34.8917 68.7118 33.0219 65.1045 32.0731C61.4977 31.1243 57.7011 31.1296 54.0962 32.0882C50.4918 33.0473 47.2069 34.9258 44.5712 37.5356C44.3532 37.7581 44.3532 38.111 44.5712 38.3336C44.6785 38.438 44.8243 38.4961 44.9751 38.4941L44.9533 38.4946Z" fill="#D20000"/>
<path id="Vector_13" d="M59.3241 58.3838C60.6391 58.3883 61.8987 58.8696 62.8294 59.7226C63.9336 60.8966 64.3127 62.5052 63.8358 63.993C63.359 65.4813 62.0914 66.645 60.4703 67.0828C58.8497 67.5206 57.0975 67.1726 55.8187 66.1588C54.8764 65.3117 54.3457 64.1515 54.3457 62.9407C54.3457 61.7299 54.8763 60.5702 55.8187 59.7225C56.7484 58.8686 58.0085 58.3874 59.3241 58.3838ZM61.3433 61.1C60.8151 60.6008 60.0893 60.3188 59.3309 60.3188C58.5729 60.3188 57.8472 60.6008 57.3191 61.1C56.7768 61.58 56.4726 62.2431 56.4775 62.9345C56.4809 63.6223 56.7836 64.2805 57.3191 64.7622C57.8546 65.2511 58.5793 65.5254 59.3349 65.5245C60.0905 65.5236 60.8147 65.2475 61.3488 64.7572C61.8828 64.267 62.1836 63.602 62.1845 62.9084C62.1899 62.217 61.8857 61.5539 61.3434 61.0744L61.3433 61.1Z" fill="#D20000"/>
</g>
</g>
</g>
</g>
</g>
</g>
</g>
<defs>
<clipPath id="clip0_0_1">
<rect width="1920" height="12800" fill="white" transform="translate(-200 -9115)"/>
</clipPath>
</defs>
</svg>
