<svg width="199" height="100" viewBox="0 0 199 100" fill="none" xmlns="http://www.w3.org/2000/svg">
<path d="M0 90.008C0 88.0994 0.430367 86.3873 1.2911 84.8717C2.15184 83.3373 3.32131 82.1398 4.79953 81.279C6.29646 80.4183 7.95243 79.9879 9.76746 79.9879C11.9006 79.9879 13.7624 80.5025 15.3529 81.5316C16.9434 82.5608 18.1035 84.0203 18.8332 85.9102H15.7739C15.2313 84.7313 14.4454 83.8238 13.4162 83.1876C12.4058 82.5514 11.1895 82.2333 9.76746 82.2333C8.40151 82.2333 7.1759 82.5514 6.09063 83.1876C5.00536 83.8238 4.15398 84.7313 3.53649 85.9102C2.91901 87.0703 2.61027 88.4362 2.61027 90.008C2.61027 91.5611 2.91901 92.927 3.53649 94.1058C4.15398 95.266 5.00536 96.1641 6.09063 96.8003C7.1759 97.4365 8.40151 97.7546 9.76746 97.7546C11.1895 97.7546 12.4058 97.4459 13.4162 96.8284C14.4454 96.1922 15.2313 95.2847 15.7739 94.1058H18.8332C18.1035 95.977 16.9434 97.4272 15.3529 98.4563C13.7624 99.4667 11.9006 99.9719 9.76746 99.9719C7.95243 99.9719 6.29646 99.5509 4.79953 98.7089C3.32131 97.8482 2.15184 96.66 1.2911 95.1443C0.430367 93.6287 0 91.9166 0 90.008Z" fill="#4364F6"/>
<path d="M25.1894 97.7265H32.0379V99.8035H22.6353V80.2405H25.1894V97.7265Z" fill="#4364F6"/>
<path d="M43.6196 100C41.8046 100 40.1486 99.579 38.6517 98.737C37.1548 97.8762 35.9666 96.688 35.0871 95.1724C34.2264 93.6381 33.796 91.9166 33.796 90.008C33.796 88.0994 34.2264 86.3873 35.0871 84.8717C35.9666 83.3373 37.1548 82.1491 38.6517 81.3071C40.1486 80.4464 41.8046 80.016 43.6196 80.016C45.4534 80.016 47.1187 80.4464 48.6156 81.3071C50.1125 82.1491 51.2914 83.328 52.1521 84.8436C53.0128 86.3592 53.4432 88.0807 53.4432 90.008C53.4432 91.9353 53.0128 93.6568 52.1521 95.1724C51.2914 96.688 50.1125 97.8762 48.6156 98.737C47.1187 99.579 45.4534 100 43.6196 100ZM43.6196 97.7827C44.9856 97.7827 46.2112 97.4646 47.2965 96.8284C48.4004 96.1922 49.2612 95.2847 49.8787 94.1058C50.5148 92.927 50.8329 91.5611 50.8329 90.008C50.8329 88.4362 50.5148 87.0703 49.8787 85.9102C49.2612 84.7313 48.4098 83.8238 47.3245 83.1876C46.2392 82.5514 45.0043 82.2333 43.6196 82.2333C42.235 82.2333 41 82.5514 39.9147 83.1876C38.8294 83.8238 37.9687 84.7313 37.3325 85.9102C36.715 87.0703 36.4063 88.4362 36.4063 90.008C36.4063 91.5611 36.715 92.927 37.3325 94.1058C37.9687 95.2847 38.8294 96.1922 39.9147 96.8284C41.0187 97.4646 42.2537 97.7827 43.6196 97.7827Z" fill="#4364F6"/>
<path d="M59.313 80.2405V92.6183C59.313 94.3584 59.734 95.6495 60.5761 96.4916C61.4368 97.3336 62.625 97.7546 64.1406 97.7546C65.6376 97.7546 66.807 97.3336 67.6491 96.4916C68.5098 95.6495 68.9402 94.3584 68.9402 92.6183V80.2405H71.4943V92.5902C71.4943 94.2181 71.1668 95.5934 70.5119 96.7161C69.857 97.8201 68.9682 98.6434 67.8455 99.186C66.7415 99.7287 65.4972 100 64.1126 100C62.7279 100 61.4742 99.7287 60.3515 99.186C59.2475 98.6434 58.3681 97.8201 57.7132 96.7161C57.077 95.5934 56.7589 94.2181 56.7589 92.5902V80.2405H59.313Z" fill="#4364F6"/>
<path d="M81.8457 80.2405C83.9788 80.2405 85.8219 80.6428 87.375 81.4474C88.9467 82.2333 90.1443 83.3654 90.9676 84.8436C91.8096 86.3218 92.2306 88.062 92.2306 90.0641C92.2306 92.0663 91.8096 93.8065 90.9676 95.2847C90.1443 96.7442 88.9467 97.8669 87.375 98.6528C85.8219 99.4199 83.9788 99.8035 81.8457 99.8035H75.7551V80.2405H81.8457ZM81.8457 97.6985C84.3717 97.6985 86.299 97.0342 87.6276 95.7057C88.9561 94.3584 89.6204 92.4779 89.6204 90.0641C89.6204 87.6316 88.9467 85.7324 87.5995 84.3664C86.271 83.0005 84.353 82.3175 81.8457 82.3175H78.3092V97.6985H81.8457Z" fill="#4364F6"/>
<path d="M108.462 99.8035L104.617 94.2181L101.333 99.8035H95.0737L101.501 89.6712L94.8491 80.016H101.333L105.066 85.4611L108.265 80.016H114.524L108.181 89.9799L114.945 99.8035H108.462Z" fill="#282828"/>
<path d="M132.467 86.6118C132.467 87.8094 132.186 88.904 131.625 89.8957C131.082 90.8687 130.249 91.6546 129.127 92.2534C128.023 92.8334 126.666 93.1235 125.057 93.1235H122.334V99.8035H116.833V80.016H125.057C126.647 80.016 127.995 80.2967 129.099 80.858C130.221 81.4193 131.063 82.1959 131.625 83.1876C132.186 84.1793 132.467 85.3207 132.467 86.6118ZM124.524 88.7449C126.077 88.7449 126.853 88.0339 126.853 86.6118C126.853 85.171 126.077 84.4506 124.524 84.4506H122.334V88.7449H124.524Z" fill="#282828"/>
<path d="M140.178 84.4226V87.6503H146.493V91.8324H140.178V95.3969H147.335V99.8035H134.677V80.016H147.335V84.4226H140.178Z" fill="#282828"/>
<path d="M160.074 99.8035L156.144 92.506H155.555V99.8035H150.054V80.016H158.726C160.317 80.016 161.664 80.2967 162.768 80.858C163.872 81.4006 164.705 82.1585 165.266 83.1315C165.827 84.0858 166.108 85.1617 166.108 86.3592C166.108 87.7064 165.734 88.8946 164.985 89.9238C164.256 90.9342 163.18 91.6546 161.758 92.085L166.22 99.8035H160.074ZM155.555 88.7449H158.277C159.026 88.7449 159.587 88.5672 159.961 88.2117C160.336 87.8561 160.523 87.3416 160.523 86.668C160.523 86.0318 160.326 85.5359 159.933 85.1804C159.559 84.8061 159.007 84.619 158.277 84.619H155.555V88.7449Z" fill="#282828"/>
<path d="M183.514 80.016V84.3945H178.237V99.8035H172.736V84.3945H167.515V80.016H183.514Z" fill="#282828"/>
<path d="M191.05 84.4226V87.6503H197.365V91.8324H191.05V95.3969H198.207V99.8035H185.549V80.016H198.207V84.4226H191.05Z" fill="#282828"/>
<path d="M76.7765 0.406647C67.2062 2.09607 60.6804 7.73585 57.021 16.7181C56.8443 17.1498 56.7896 17.521 57.0474 17.9593C58.4143 20.2882 59.7655 22.6266 61.096 24.9777C61.3662 25.4524 61.7313 25.5582 62.1918 25.4609C62.683 25.357 62.5063 24.9253 62.5205 24.623C62.9866 15.4297 70.5652 7.74389 79.7973 7.10675C90.6858 6.35626 99.8362 14.8922 99.8551 25.8218C99.8612 29.236 99.8749 32.6475 99.8404 36.0617C99.8324 36.7759 100.052 36.9728 100.753 36.9662C104.202 36.9341 107.649 36.9355 111.097 36.9624C112.073 36.9681 113.069 36.9927 114.022 37.1792C119.891 38.3255 123.921 43.6625 123.345 49.46C122.755 55.4195 117.886 59.8172 111.847 59.8294C107.08 59.8398 102.315 59.8318 97.5507 59.8318C92.447 59.8318 87.3433 59.8417 82.2396 59.8195C81.4825 59.8172 81.2534 59.9187 81.7102 60.6734C82.7747 62.4342 83.8152 64.2153 84.7933 66.0265C85.1627 66.7104 85.5745 66.9537 86.3633 66.9518C92.2486 66.9291 98.1335 66.9291 104.019 66.9291C106.617 66.9291 109.215 66.9291 111.813 66.9272C112.791 66.9272 113.764 66.889 114.74 66.7388C119.95 65.9373 124.418 62.9981 127.252 58.8683C130.096 62.7667 134.429 65.5254 139.452 66.2986C140.427 66.4483 141.4 66.487 142.378 66.487C144.934 66.4894 147.49 66.4894 150.046 66.4894C155.973 66.4894 161.901 66.4889 167.828 66.5111C168.617 66.5135 169.031 66.2698 169.4 65.5863C170.378 63.7746 171.417 61.9935 172.483 60.2328C172.94 59.4785 172.709 59.3775 171.952 59.3789C166.848 59.4015 161.744 59.3911 156.643 59.3911C151.876 59.3911 147.111 59.3996 142.346 59.3892C136.307 59.3774 131.436 54.9794 130.847 49.0194C130.27 43.2218 134.301 37.8853 140.171 36.739C141.124 36.5525 142.119 36.5279 143.096 36.5223C143.322 36.5199 143.545 36.518 143.77 36.518H144.709C149.811 36.518 154.915 36.5081 160.018 36.5303C160.775 36.5322 161.006 36.4306 160.55 35.6763C159.483 33.9156 158.444 32.1346 157.466 30.3233C157.097 29.6394 156.684 29.3961 155.894 29.398C152.525 29.4103 149.157 29.416 145.788 29.416V29.4103C145.656 29.4103 145.513 29.4079 145.358 29.4065C142.277 29.3716 139.214 29.4065 136.246 30.4206C132.37 31.7468 129.148 34.2991 126.941 37.5363C124.747 34.5074 121.643 32.1265 117.945 30.8603C114.98 29.8462 111.914 29.8118 108.835 29.8462C106.949 29.8661 106.908 29.8486 106.956 28.0208C107.056 24.2797 106.762 20.5999 105.458 17.0544C101.626 6.63679 92.1022 -0.000465393 81.3843 7.62939e-06C79.8686 7.62939e-06 78.3275 0.132706 76.7765 0.406647Z" fill="url(#paint0_linear_11_17062)"/>
<path d="M80.6554 66.9341H79.4349C70.0748 66.9341 60.7143 66.9369 51.3542 66.9336C38.9992 66.9289 29.112 58.6022 26.9951 46.4243C24.7281 33.3831 34.3262 20.3442 47.4463 18.6175C48.926 18.4229 50.4077 18.3993 51.8931 18.3525C52.4471 18.3351 52.7404 18.5382 53.003 19.0057C54.0775 20.9181 55.1746 22.8182 56.2944 24.7041C56.6628 25.3247 56.5528 25.4668 55.8382 25.4768C53.1735 25.5131 50.5007 25.2798 47.8473 25.736C39.7109 27.135 33.7094 34.5091 33.8072 43.0063C33.9011 51.1629 40.1492 58.3967 48.1411 59.6233C49.1816 59.7825 50.2216 59.8425 51.2701 59.842C59.3465 59.8401 67.4224 59.8557 75.4988 59.8193C76.3276 59.8155 76.7541 60.089 77.1381 60.7923C78.2324 62.7981 79.4042 64.7624 80.6554 66.9341Z" fill="#282828"/>
<defs>
<linearGradient id="paint0_linear_11_17062" x1="56.8713" y1="33.4758" x2="172.717" y2="33.4758" gradientUnits="userSpaceOnUse">
<stop stop-color="#4364F6"/>
<stop offset="1" stop-color="#79AEFE"/>
</linearGradient>
</defs>
</svg>
