<svg width="120" height="120" viewBox="0 0 120 120" fill="none" xmlns="http://www.w3.org/2000/svg">
<circle cx="60" cy="60" r="59" stroke="#D20000" stroke-opacity="0.3" stroke-width="2"/>
<path d="M42.0381 46.8633C38.068 46.8633 34.8369 50.3713 34.8369 54.683C34.8369 58.0951 42.0381 72.5798 42.0381 72.5798C42.0381 72.5798 49.2382 58.0961 49.2382 54.683C49.2382 50.37 46.0076 46.8633 42.0381 46.8633ZM42.0376 57.9926C40.2545 57.9926 38.8082 56.4234 38.8082 54.4859C38.8082 52.5491 40.2533 50.9792 42.0376 50.9792C43.8212 50.9792 45.2669 52.5484 45.2669 54.4859C45.2663 56.4234 43.8212 57.9926 42.0376 57.9926Z" fill="#D20000"/>
<path d="M42.0552 41.7188C38.7431 41.7188 35.8087 43.1232 33.8086 45.2899L35.6398 46.8621C37.1811 45.1525 39.4689 44.0397 42.0562 44.0397C44.6321 44.0397 46.9114 45.143 48.4516 46.8397L50.2672 45.2507C48.2652 43.1064 45.346 41.7188 42.0552 41.7188Z" fill="#D20000"/>
<path d="M42.0741 36.5762C37.1406 36.5762 32.7188 38.7166 29.6934 42.0848L31.5601 43.7768C34.119 40.9003 37.8783 39.0698 42.0741 39.0698C46.2389 39.0698 49.9736 40.875 52.5306 43.7158L54.3812 42.0064C51.3577 38.6846 46.9673 36.5762 42.0739 36.5762H42.0741Z" fill="#D20000"/>
<path d="M42.092 31.4326C35.5253 31.4326 29.6357 34.3438 25.5791 38.9313L27.4657 40.6906C31.051 36.6131 36.2715 34.026 42.0931 34.026C47.8651 34.026 53.0449 36.5711 56.6271 40.589L58.4963 38.8116C54.4417 34.293 48.5995 31.4326 42.0917 31.4326H42.092Z" fill="#D20000"/>
<path d="M84.1973 81.3144L82.7083 84.364L67.1039 74.6083L74.0453 54.4687L81.7008 59.4979H87.2997L73.5356 50.9766L58.219 63.3634L50.1181 58.7656C49.8147 59.5911 49.4534 60.429 49.0559 61.3546L57.0796 65.7735L50.1444 86.5474L35.1779 78.2484L38.4138 68.5462C37.8469 67.427 37.237 66.1944 36.6363 64.9358L31.752 79.5755L50.6833 90.0657L65.9177 77.5268L84.2956 88.9731L86.7902 81.7785L84.1973 81.3144ZM65.2994 74.3768L52.7422 84.7126L58.9031 66.243L71.4616 55.9072L65.2994 74.3768Z" fill="#D20000"/>
<path d="M90.0654 63.9244C91.0434 63.9244 91.8389 64.7199 91.8389 65.6979V75.3453C91.8389 76.3234 91.0434 77.1189 90.0654 77.1189H80.4186C79.4406 77.1189 78.6451 76.3233 78.6451 75.3453L78.6445 65.6979C78.6445 64.7199 79.44 63.9244 80.418 63.9244H90.0654ZM90.0654 61.2637H80.4186C77.9701 61.2637 75.9844 63.2494 75.9844 65.6979V75.3453C75.9844 77.7938 77.9701 79.7796 80.4186 79.7796H90.066C92.5145 79.7796 94.5003 77.7938 94.5003 75.3453L94.4997 65.6979C94.4997 63.2494 92.5139 61.2637 90.0654 61.2637Z" fill="#D20000"/>
<path d="M84.2129 66.4072H90.3849V70.5219H84.2129V66.4072Z" fill="#D20000"/>
</svg>
